<svg version="1.1" id="Layer_1" xmlns="http://www.w3.org/2000/svg" xmlns:xlink="http://www.w3.org/1999/xlink" x="0px" y="0px"
	 width="100%" viewBox="0 0 360 120" enable-background="new 0 0 360 120" xml:space="preserve">
<path fill="#000000" opacity="1.000000" stroke="none" 
	d="
M231.000000,121.000000 
	C154.000015,121.000000 77.500038,121.000000 1.000041,121.000000 
	C1.000027,81.000031 1.000027,41.000057 1.000014,1.000062 
	C120.999939,1.000042 240.999878,1.000042 360.999878,1.000021 
	C360.999908,40.999935 360.999908,80.999870 360.999939,120.999901 
	C317.833344,121.000000 274.666656,121.000000 231.000000,121.000000 
M240.271255,90.046005 
	C238.384018,89.726112 235.135880,91.299355 236.947128,87.004448 
	C238.698685,86.654152 240.450256,86.303848 242.201813,85.953545 
	C242.090927,85.301910 241.980042,84.650269 241.869156,83.998634 
	C239.576370,83.998634 237.241318,83.752846 235.014435,84.135918 
	C234.265045,84.264824 233.790558,85.991783 233.052078,87.889359 
	C233.098389,90.925568 233.144699,93.961769 233.024689,97.685783 
	C233.354965,98.400688 233.685226,99.115593 234.507233,99.960663 
	C234.670959,99.916580 234.834686,99.872498 235.499802,99.955093 
	C235.664963,99.905830 235.830139,99.856560 236.658157,99.944641 
	C237.104752,99.899063 237.551346,99.853485 238.792694,99.974854 
	C239.845673,99.603249 240.898636,99.231644 241.951614,98.860031 
	C241.302521,98.299553 240.653427,97.739082 239.167480,97.048615 
	C238.104385,96.469002 237.041306,95.889397 235.978195,95.309784 
	C236.984589,94.479218 237.990982,93.648651 239.687515,92.980591 
	C240.450134,92.620102 241.212769,92.259605 241.975418,91.899117 
	C241.634445,91.327820 241.293472,90.756523 240.271255,90.046005 
M107.011147,67.997902 
	C107.011147,67.997902 107.026138,68.040581 107.773346,68.329483 
	C107.851112,69.152023 107.754349,70.041748 108.040161,70.784203 
	C108.822784,72.817245 109.766388,74.788315 110.646255,76.783928 
	C112.590637,75.858444 114.920540,75.331558 116.387642,73.912605 
	C118.506996,71.862808 120.000862,69.166290 121.855331,66.616844 
	C125.630203,71.719215 129.386414,72.302872 133.627792,68.612846 
	C134.378036,67.960129 134.824814,66.246689 134.519745,65.315239 
	C134.269882,64.552429 132.586823,64.357033 131.727753,63.673115 
	C130.399368,62.615555 128.959595,61.529884 128.068680,60.135605 
	C127.072701,58.576893 126.636360,56.660576 125.922112,54.810932 
	C118.934929,56.710808 119.653610,64.229172 114.811996,67.429710 
	C115.285896,64.419548 115.925385,61.397442 117.522911,59.018757 
	C121.140045,53.632931 125.711517,48.847797 128.984299,43.282856 
	C131.948044,38.243393 134.254028,32.644604 135.800064,27.004616 
	C136.827072,23.258116 133.555740,21.460545 130.129700,23.461603 
	C128.438873,24.449175 126.747185,25.649807 125.486626,27.122684 
	C119.778557,33.792152 114.714142,40.834782 111.938622,49.368736 
	C110.324684,54.331150 107.973816,59.053890 105.247948,64.014519 
	C100.858231,66.069077 96.468521,68.123642 91.355225,70.027908 
	C90.867661,70.077805 90.380104,70.127701 89.392014,70.032242 
	C89.047462,70.061539 88.702904,70.090828 88.015495,69.570816 
	C83.149597,67.761307 81.204590,62.950775 80.776176,59.039143 
	C79.942177,51.424328 81.702377,43.861633 85.945862,37.060204 
	C90.001549,30.559786 96.801422,28.589750 101.092339,32.131329 
	C99.118942,39.518391 97.263092,46.465458 95.419456,53.366798 
	C100.455574,55.045769 103.186813,53.458683 104.311348,49.191753 
	C105.623405,44.213245 107.367149,39.240704 107.781364,34.172230 
	C108.046425,30.928774 107.276009,25.866028 105.147156,24.535816 
	C101.160858,22.044979 96.196632,22.108088 91.329430,24.984186 
	C80.891678,31.152021 75.186729,40.157974 72.964691,51.787807 
	C70.951576,62.324146 73.701477,74.082886 86.873352,75.974152 
	C92.267326,76.914017 96.660347,74.444138 101.537682,71.898666 
	C101.729935,71.611443 101.922195,71.324219 102.741760,70.850647 
	C103.833145,70.156540 104.924530,69.462433 106.508148,68.824188 
	C106.811691,68.640900 106.991669,68.374229 107.011147,67.997902 
M337.340149,57.855228 
	C335.616608,58.359394 333.657806,58.501801 332.216187,59.439423 
	C328.695374,61.729343 325.413910,64.387215 321.966400,66.133316 
	C319.626160,62.759434 319.678894,59.209492 321.126404,55.522984 
	C322.655853,51.627655 324.318695,47.770321 325.578278,43.787273 
	C326.926971,39.522305 328.002655,35.156605 328.900574,30.774031 
	C329.113831,29.733120 328.143433,28.449703 327.717499,27.277832 
	C326.489563,27.809397 324.668640,28.000364 324.134430,28.930410 
	C321.568939,33.396702 319.441650,38.112026 316.975616,42.639164 
	C315.510040,45.329659 314.023224,48.127468 311.977051,50.354294 
	C309.088470,53.497940 305.700439,56.188694 302.476135,59.016254 
	C298.968079,62.092663 295.403076,65.104088 291.804016,68.194412 
	C289.439880,65.069160 294.224426,57.976402 285.673401,58.700443 
	C285.536621,58.580051 285.399872,58.459663 285.691559,57.822662 
	C287.093658,56.409245 288.714203,55.146763 289.828247,53.534313 
	C290.708221,52.260689 290.965424,50.556782 291.499207,49.043968 
	C289.883972,49.028019 287.861755,48.379002 286.726105,49.109062 
	C282.500854,51.825302 278.117065,54.558384 274.658142,58.124516 
	C271.583679,61.294304 264.728302,62.690102 267.665314,69.678413 
	C267.750214,69.880379 266.768646,70.420807 266.786011,70.779129 
	C266.881104,72.743126 266.563782,75.093414 267.544586,76.510757 
	C268.132477,77.360313 271.289368,77.449760 272.500000,76.662903 
	C276.379364,74.141441 279.889832,71.052361 283.737762,68.028999 
	C284.812988,75.095879 288.663635,76.457253 294.720734,72.675484 
	C294.841614,72.807755 294.962463,72.940018 295.011627,73.856712 
	C295.933380,75.354195 296.591797,77.760719 297.842377,78.122971 
	C299.467773,78.593788 302.130829,78.035332 303.351532,76.873596 
	C307.079285,73.325920 310.329865,69.276878 313.358887,65.879631 
	C314.462280,67.789848 315.712189,69.953751 317.323608,72.787010 
	C322.537903,75.717049 326.125031,73.484116 329.646667,68.837784 
	C333.726196,64.952492 333.234406,70.185371 333.916687,71.357216 
	C336.907684,76.494492 339.529053,77.306541 344.515350,73.962975 
	C346.356232,72.728569 348.196838,71.493752 350.197876,70.151604 
	C349.233032,68.620064 348.390259,67.282272 347.543396,65.938019 
	C345.455292,67.171867 343.597321,68.269707 342.020569,69.201401 
	C340.550995,65.173248 339.273529,61.671608 337.340149,57.855228 
M45.014297,49.208408 
	C44.952938,48.480095 44.891582,47.751778 45.133350,46.383858 
	C48.691807,46.429241 49.988914,44.186123 48.569927,41.490540 
	C47.404377,39.276398 45.020821,37.435520 42.766769,36.147110 
	C40.965618,35.117577 38.546864,35.168526 35.850170,34.629559 
	C37.483894,33.098652 38.738789,31.922733 39.947968,30.789656 
	C43.234047,32.995602 45.932262,34.224136 48.854694,30.718317 
	C53.566650,25.065727 55.713879,17.066195 52.850422,13.215276 
	C51.794384,16.785814 51.353168,20.470591 49.631203,23.403379 
	C48.262211,25.734993 45.279453,28.740316 43.096741,28.674500 
	C36.033237,28.461506 34.108776,29.267250 32.473003,36.477989 
	C35.002922,37.306061 37.551346,38.269047 40.169819,38.970558 
	C45.707748,40.454208 46.383984,42.341000 42.775146,46.669357 
	C39.192516,50.966278 39.192520,50.966282 45.223129,53.748417 
	C48.056427,56.232677 51.365417,58.348064 53.632374,61.271496 
	C60.016647,69.504562 62.135639,75.259361 56.953629,85.257294 
	C52.251167,94.330017 44.231407,99.996552 36.050434,105.493835 
	C34.920315,106.253227 33.901047,107.177582 32.830460,108.025566 
	C33.132504,108.404121 33.434544,108.782677 33.736588,109.161224 
	C43.285748,103.483391 53.278553,98.317947 60.626564,89.642693 
	C67.108139,81.990379 68.445107,72.960342 63.493050,64.254997 
	C59.510498,57.253971 53.471889,51.788280 45.049324,49.964634 
	C45.049324,49.964634 45.105770,49.936375 45.014297,49.208408 
M257.560089,60.938526 
	C258.644989,60.253696 259.718231,59.549507 260.816956,58.887569 
	C264.518158,56.657784 267.092316,53.941029 267.060364,49.101059 
	C266.977722,36.577293 259.570587,26.215069 247.827011,21.916739 
	C243.715561,20.411888 242.007004,23.092941 240.408646,25.373550 
	C239.550201,26.598396 240.252319,29.027163 240.489792,30.882010 
	C240.786926,33.202881 241.785156,35.516830 241.662292,37.789536 
	C241.470291,41.341724 241.058868,45.020058 239.896149,48.350178 
	C238.044785,53.652573 240.555588,60.182438 235.312820,64.531677 
	C234.959427,64.824844 235.116577,66.572594 235.433640,66.707085 
	C239.293930,68.344574 237.455734,71.004799 237.142151,73.700699 
	C236.864838,76.084869 237.704666,78.598999 238.065857,81.159058 
	C243.869614,79.513405 244.572357,77.900467 244.168594,72.944206 
	C243.983765,70.675270 242.066635,67.291389 246.675583,65.801338 
	C250.093369,64.292023 253.511169,62.782715 257.560089,60.938526 
M172.769928,41.684536 
	C173.844498,37.321396 175.210556,33.000175 175.847107,28.574039 
	C176.094315,26.855101 174.693863,24.899206 174.043961,23.051250 
	C171.919983,23.983152 168.634796,24.353420 167.866867,25.941189 
	C163.890961,34.161560 160.430878,42.642662 157.069199,51.142910 
	C155.851639,54.221642 156.348984,58.461884 154.373566,60.637188 
	C151.813904,63.455837 151.619293,65.239204 153.798569,68.059204 
	C154.795044,67.457664 155.753922,66.878838 155.926498,66.774658 
	C157.295303,68.728233 158.185730,71.194489 159.934280,72.285851 
	C167.163620,76.798012 171.649658,70.534195 176.726929,67.049591 
	C180.696213,75.406784 186.279877,76.414635 193.078461,70.469444 
	C195.005249,68.784531 197.158875,67.359032 199.242538,65.788887 
	C203.724213,74.304352 205.405777,75.441254 210.152237,73.361603 
	C216.357422,70.642830 217.191681,69.158264 215.333740,64.141090 
	C209.397598,67.910591 209.393448,67.911728 207.493500,60.954617 
	C207.282639,60.182480 207.189377,59.378239 206.978683,58.606045 
	C205.925797,54.747253 203.572205,54.085369 200.662277,56.888859 
	C197.788910,59.657116 195.303635,62.978382 192.037903,65.131470 
	C190.156693,66.371735 187.066132,65.777641 184.519913,66.009239 
	C184.474304,63.362984 184.082596,60.660248 184.502106,58.089905 
	C184.792313,56.311680 186.202057,54.716175 187.736984,52.724354 
	C189.528091,49.165588 191.319199,45.606823 193.786942,41.701374 
	C194.856064,36.986580 196.137405,32.303978 196.860672,27.536716 
	C197.068680,26.165678 195.841156,23.425282 194.966263,23.290083 
	C193.330887,23.037361 190.793930,23.688353 189.814835,24.910713 
	C182.898071,33.545990 178.486649,43.588879 177.311432,54.446091 
	C176.768036,59.466202 174.525803,62.333534 171.298355,65.017097 
	C169.053406,66.883751 165.822403,68.089867 163.486511,65.569313 
	C161.434448,63.355000 160.921509,60.399273 163.669662,57.677082 
	C164.852264,56.505676 165.317154,54.609722 166.734467,52.728020 
	C168.523193,49.163849 170.311905,45.599674 172.769928,41.684536 
M21.998392,92.490944 
	C24.435120,96.309120 26.871847,100.127289 29.661139,104.497910 
	C36.014282,98.553825 43.391090,92.380753 49.823578,85.344391 
	C53.352459,81.484230 55.562824,76.391769 55.085068,70.512535 
	C54.652172,65.185371 49.201466,59.293987 44.114426,58.097694 
	C38.059086,56.673702 34.724510,58.586815 31.360743,65.192032 
	C30.773502,66.345161 30.213652,67.512230 29.800259,68.350304 
	C26.991089,67.164970 24.193123,66.027344 21.430586,64.809364 
	C16.358465,62.573105 13.439293,65.979210 10.484784,69.042740 
	C7.879756,71.743904 6.516273,75.235176 8.982281,78.355324 
	C12.794447,83.178726 17.280222,87.469734 21.998392,92.490944 
M262.914490,92.498596 
	C261.664337,89.652351 260.414215,86.806107 259.164062,83.959862 
	C258.755005,83.927902 258.345947,83.895935 257.936859,83.863968 
	C256.969849,88.790916 255.975266,93.712952 255.093796,98.655151 
	C255.030594,99.009552 255.865540,99.914062 256.159210,99.862221 
	C256.800079,99.749115 257.734680,99.297028 257.889191,98.784447 
	C258.502930,96.748558 258.862823,94.636147 259.377808,92.271820 
	C260.881042,95.196014 262.203613,97.768707 263.839264,100.950432 
	C265.366943,97.654228 266.402893,95.419029 267.730042,92.555519 
	C268.795227,95.599800 269.597137,97.891579 270.399048,100.183365 
	C271.026154,100.012955 271.653229,99.842545 272.280334,99.672142 
	C271.395538,94.458923 270.510773,89.245712 269.403442,82.721237 
	C267.874878,85.449631 266.962067,86.909508 266.219482,88.451370 
	C265.455505,90.037758 264.880737,91.714851 264.141785,93.314644 
	C264.083801,93.440147 263.386993,93.270576 262.914490,92.498596 
M103.937798,94.517082 
	C104.301254,95.415703 104.528725,96.404076 105.052101,97.197159 
	C107.137032,100.356552 112.187126,101.289444 116.192551,99.339508 
	C119.694786,97.634521 121.351334,93.459839 120.001717,89.739960 
	C118.400230,85.325867 114.894211,83.326225 109.946617,84.005096 
	C106.323730,84.502197 103.430801,88.894814 103.937798,94.517082 
M147.363846,43.879177 
	C146.904572,42.341942 146.861221,40.392986 145.865341,39.386959 
	C144.929214,38.441303 142.412720,37.686024 141.603088,38.263981 
	C139.685150,39.633121 138.132660,41.705276 136.916748,43.777431 
	C136.393768,44.668709 137.043808,46.269184 137.239059,47.535412 
	C137.264328,47.699276 137.759644,47.790665 138.108429,47.947678 
	C139.112701,47.264587 140.149704,46.559238 141.209000,45.838718 
	C144.307327,51.493221 146.119080,52.288898 150.143799,49.951805 
	C153.840836,47.804985 154.226273,46.399773 152.253357,43.432686 
	C150.717422,43.776947 149.324081,44.089249 147.363846,43.879177 
M308.997406,97.219612 
	C309.571442,98.130043 310.145447,99.040482 310.719513,99.950928 
	C311.145447,99.045876 311.863495,98.164467 311.939026,97.231049 
	C312.119537,95.000626 311.997284,92.745697 311.997284,89.479561 
	C315.806244,93.638832 318.868622,96.982872 322.652649,101.114952 
	C322.652649,94.476212 322.652649,89.292259 322.652649,84.108299 
	C322.053009,84.002838 321.453400,83.897369 320.853760,83.791908 
	C320.426575,87.004913 319.999359,90.217918 319.394226,94.769119 
	C315.577576,90.890396 312.384186,87.645058 308.996399,84.202148 
	C308.996399,88.345604 308.996399,92.312462 308.997406,97.219612 
M205.698532,84.235420 
	C205.377777,84.213211 205.057022,84.191002 204.736267,84.168793 
	C204.540680,89.179573 204.322983,94.189888 204.219055,99.202568 
	C204.214172,99.437408 205.424774,100.036980 205.716904,99.865692 
	C206.274857,99.538559 206.900940,98.794434 206.931824,98.194206 
	C207.063477,95.637032 206.987823,93.069191 206.987823,89.880074 
	C210.646240,93.775620 213.753754,97.084549 217.694107,101.280304 
	C217.694107,94.486839 217.694107,89.299057 217.694107,83.196243 
	C212.964905,86.181755 216.277054,90.520973 214.482162,93.729767 
	C211.691330,90.709351 208.967865,87.761864 205.698532,84.235420 
M148.336044,96.199051 
	C149.261749,91.995903 150.074936,87.807983 146.100540,84.127342 
	C146.100540,87.262505 146.100540,90.397667 146.100540,94.576042 
	C141.739471,90.574623 138.250381,87.373276 135.155640,84.533760 
	C135.155640,89.398453 135.155640,94.655800 135.155640,101.015221 
	C139.752670,98.103271 136.769318,94.024155 139.400116,90.171654 
	C142.489563,93.936516 145.376144,97.454163 148.262726,100.971809 
	C148.545990,100.741341 148.829239,100.510864 149.112488,100.280388 
	C148.906479,99.179153 148.700470,98.077927 148.336044,96.199051 
M286.719971,84.112587 
	C286.394196,89.272369 286.068451,94.432144 285.743073,99.585556 
	C289.302368,99.585556 292.108521,99.585556 294.914642,99.585556 
	C295.022156,99.024826 295.129639,98.464104 295.237122,97.903374 
	C293.259491,97.448586 291.281830,96.993790 289.228210,96.521523 
	C289.228210,95.463692 289.228210,94.392975 289.228210,93.780029 
	C291.383606,92.981483 293.188751,92.312698 294.993896,91.643913 
	C294.836578,91.144989 294.679230,90.646072 294.521912,90.147156 
	C293.885162,90.102295 293.212891,90.172318 292.619110,89.988586 
	C291.397797,89.610657 290.218445,89.097015 289.021820,88.639214 
	C290.126434,88.088913 291.242767,87.560661 292.332153,86.981720 
	C293.307007,86.463676 294.252136,85.889778 295.210388,85.340515 
	C294.984131,84.897858 294.757904,84.455208 294.531647,84.012558 
	C292.238922,84.012558 289.946198,84.012558 286.719971,84.112587 
M83.655746,84.003922 
	C78.368790,84.524483 75.715431,87.741791 76.007317,93.277969 
	C76.206009,97.046577 80.898087,101.352211 84.696693,100.499969 
	C86.990318,99.985374 91.293053,100.136917 89.674988,95.200516 
	C86.475533,97.469505 82.904831,99.514465 80.112953,95.301178 
	C79.065804,93.720901 79.035179,90.202156 80.118744,88.722488 
	C82.883705,84.946747 86.514923,86.467087 89.808708,88.768700 
	C90.706062,84.034340 87.607872,84.013100 83.655746,84.003922 
M201.027710,43.572895 
	C202.059586,44.384674 203.010162,45.747238 204.137314,45.913651 
	C209.234924,46.666260 210.451019,42.844662 211.382477,39.070168 
	C211.647491,37.996265 211.579651,36.195919 210.927460,35.702137 
	C210.101791,35.077019 207.991760,34.888363 207.364517,35.486126 
	C205.040039,37.701324 203.097397,40.317173 201.027710,43.572895 
M167.672470,89.997635 
	C167.131882,89.388107 166.591293,88.778587 166.050705,88.169060 
	C166.814133,87.779205 167.557159,87.340645 168.345657,87.010681 
	C169.592331,86.488960 170.869476,86.040039 172.133728,85.560326 
	C171.932251,85.130432 171.730774,84.700546 171.529297,84.270653 
	C168.800583,84.270653 166.071869,84.270653 163.232941,84.270653 
	C163.232941,89.610023 163.232941,94.680016 163.232941,99.750008 
	C163.759338,99.908318 164.285736,100.066628 164.812134,100.224937 
	C165.402023,97.916008 165.991898,95.607079 166.454834,93.795052 
	C168.441498,92.992798 170.203629,92.281219 171.965744,91.569641 
	C170.830215,91.048447 169.694702,90.527252 167.672470,89.997635 
M342.560272,44.926506 
	C343.042725,43.415604 343.453339,41.877094 344.021606,40.399181 
	C345.489166,36.582329 342.472107,36.278465 340.681122,37.185902 
	C338.152863,38.466919 335.962402,40.753983 334.217346,43.057735 
	C333.605652,43.865257 334.736847,45.992992 335.072144,47.517853 
	C337.382477,46.835861 339.692780,46.153873 342.560272,44.926506 
M343.999634,90.694847 
	C345.281647,88.624931 346.563690,86.555016 348.145660,84.000816 
	C345.280609,84.000816 342.962219,83.839890 340.679596,84.056244 
	C339.104858,84.205505 337.579590,84.876740 336.032227,85.314697 
	C337.451813,85.912773 338.880493,86.490761 340.282837,87.126808 
	C340.546021,87.246178 340.703979,87.597565 341.001068,87.949043 
	C341.001068,90.832703 340.886047,93.827042 341.062195,96.804153 
	C341.125580,97.875320 341.889465,98.905045 342.333710,99.953674 
	C342.888824,98.838638 343.728485,97.772362 343.929932,96.596725 
	C344.206512,94.982796 343.999451,93.285980 343.999634,90.694847 
M147.601303,26.920464 
	C147.441895,25.263163 147.282486,23.605862 147.123077,21.948563 
	C146.435898,21.687586 145.748718,21.426611 145.061539,21.165634 
	C143.773697,22.881454 142.297302,24.493267 141.271210,26.353458 
	C140.688278,27.410204 140.842361,28.873487 140.664520,30.153685 
	C142.048859,30.317820 143.606964,30.942888 144.764832,30.506334 
	C145.766251,30.128757 146.313095,28.545551 147.601303,26.920464 
M189.000870,86.789963 
	C188.590622,85.878075 188.180389,84.966194 187.770142,84.054306 
	C187.187073,84.635986 186.120407,85.200333 186.098846,85.802147 
	C185.950180,89.948906 185.971359,94.104698 186.074951,98.254166 
	C186.089340,98.830261 186.856613,99.387550 187.275360,99.953552 
	C187.847336,99.367577 188.885651,98.803368 188.914200,98.192009 
	C189.076691,94.711624 188.998245,91.220001 189.000870,86.789963 
z"/>
<path fill="#F795A3" opacity="1.000000" stroke="none" 
	d="
M187.111557,53.039024 
	C186.202057,54.716175 184.792313,56.311680 184.502106,58.089905 
	C184.082596,60.660248 184.474304,63.362984 184.519928,66.009239 
	C187.066132,65.777641 190.156693,66.371735 192.037903,65.131470 
	C195.303635,62.978382 197.788910,59.657116 200.662277,56.888859 
	C203.572205,54.085369 205.925797,54.747253 206.978683,58.606045 
	C207.189377,59.378239 207.282639,60.182480 207.493500,60.954617 
	C209.393448,67.911728 209.397598,67.910591 215.333740,64.141090 
	C217.191681,69.158264 216.357422,70.642830 210.152237,73.361603 
	C205.405777,75.441254 203.724213,74.304352 199.242538,65.788887 
	C197.158875,67.359032 195.005249,68.784531 193.078461,70.469444 
	C186.279877,76.414635 180.696213,75.406784 176.726929,67.049591 
	C171.649658,70.534195 167.163620,76.798012 159.934280,72.285851 
	C158.185730,71.194489 157.295303,68.728233 155.926498,66.774658 
	C155.753922,66.878838 154.795044,67.457664 153.798569,68.059204 
	C151.619293,65.239204 151.813904,63.455837 154.373566,60.637188 
	C156.348984,58.461884 155.851639,54.221642 157.069199,51.142910 
	C160.430878,42.642662 163.890961,34.161560 167.866867,25.941189 
	C168.634796,24.353420 171.919983,23.983152 174.043961,23.051250 
	C174.693863,24.899206 176.094315,26.855101 175.847107,28.574039 
	C175.210556,33.000175 173.844498,37.321396 172.118835,41.821163 
	C167.613144,42.766079 164.655365,48.883533 166.108109,53.042938 
	C165.317154,54.609722 164.852264,56.505676 163.669662,57.677082 
	C160.921509,60.399273 161.434448,63.355000 163.486511,65.569313 
	C165.822403,68.089867 169.053406,66.883751 171.298355,65.017097 
	C174.525803,62.333534 176.768036,59.466202 177.311432,54.446091 
	C178.486649,43.588879 182.898071,33.545990 189.814835,24.910713 
	C190.793930,23.688353 193.330887,23.037361 194.966263,23.290083 
	C195.841156,23.425282 197.068680,26.165678 196.860672,27.536716 
	C196.137405,32.303978 194.856064,36.986580 193.149384,41.750435 
	C189.203369,42.431229 184.987137,49.700706 186.216660,52.718063 
	C186.296524,52.914062 186.803345,52.936077 187.111557,53.039024 
z"/>
<path fill="#F795A3" opacity="1.000000" stroke="none" 
	d="
M286.070129,59.076420 
	C294.224426,57.976402 289.439880,65.069160 291.804016,68.194412 
	C295.403076,65.104088 298.968079,62.092663 302.476135,59.016254 
	C305.700439,56.188694 309.088470,53.497940 311.977051,50.354294 
	C314.023224,48.127468 315.510040,45.329659 316.975616,42.639164 
	C319.441650,38.112026 321.568939,33.396702 324.134430,28.930410 
	C324.668640,28.000364 326.489563,27.809397 327.717499,27.277832 
	C328.143433,28.449703 329.113831,29.733120 328.900574,30.774031 
	C328.002655,35.156605 326.926971,39.522305 325.578278,43.787273 
	C324.318695,47.770321 322.655853,51.627655 321.126404,55.522984 
	C319.678894,59.209492 319.626160,62.759434 322.070312,66.841980 
	C322.990295,68.476875 323.806366,69.403099 325.539093,71.369682 
	C322.640320,71.369682 320.847504,71.300262 319.064728,71.403870 
	C318.352417,71.445267 317.662323,71.868332 316.962097,72.117661 
	C315.712189,69.953751 314.462280,67.789848 313.358887,65.879631 
	C310.329865,69.276878 307.079285,73.325920 303.351532,76.873596 
	C302.130829,78.035332 299.467773,78.593788 297.842377,78.122971 
	C296.591797,77.760719 295.933380,75.354195 295.323608,73.358063 
	C295.658356,72.326042 295.681091,71.792679 295.703796,71.259308 
	C295.260651,71.594360 294.817474,71.929413 294.374329,72.264465 
	C288.663635,76.457253 284.812988,75.095879 283.737762,68.028999 
	C279.889832,71.052361 276.379364,74.141441 272.500000,76.662903 
	C271.289368,77.449760 268.132477,77.360313 267.544586,76.510757 
	C266.563782,75.093414 266.881104,72.743126 266.786011,70.779129 
	C266.768646,70.420807 267.750214,69.880379 267.665314,69.678413 
	C264.728302,62.690102 271.583679,61.294304 274.658142,58.124516 
	C278.117065,54.558384 282.500854,51.825302 286.726105,49.109062 
	C287.861755,48.379002 289.883972,49.028019 291.499207,49.043968 
	C290.965424,50.556782 290.708221,52.260689 289.828247,53.534313 
	C288.714203,55.146763 287.093658,56.409245 285.248535,58.270462 
	C284.654755,59.067421 284.504028,59.416584 284.353271,59.765751 
	C284.925568,59.535976 285.497833,59.306202 286.070129,59.076420 
z"/>
<path fill="#F795A3" opacity="1.000000" stroke="none" 
	d="
M246.002869,65.833054 
	C242.066635,67.291389 243.983765,70.675270 244.168594,72.944206 
	C244.572357,77.900467 243.869614,79.513405 238.065857,81.159058 
	C237.704666,78.598999 236.864838,76.084869 237.142151,73.700699 
	C237.455734,71.004799 239.293930,68.344574 235.433640,66.707085 
	C235.116577,66.572594 234.959427,64.824844 235.312820,64.531677 
	C240.555588,60.182438 238.044785,53.652573 239.896149,48.350178 
	C241.058868,45.020058 241.470291,41.341724 241.662292,37.789536 
	C241.785156,35.516830 240.786926,33.202881 240.489792,30.882010 
	C240.252319,29.027163 239.550201,26.598396 240.408646,25.373550 
	C242.007004,23.092941 243.715561,20.411888 247.827011,21.916739 
	C259.570587,26.215069 266.977722,36.577293 267.060364,49.101059 
	C267.092316,53.941029 264.518158,56.657784 260.816956,58.887569 
	C259.718231,59.549507 258.644989,60.253696 256.946503,60.709419 
	C255.863449,59.290142 255.393997,58.099968 254.935364,56.933929 
	C254.946198,56.958065 254.898483,56.935501 255.259857,56.939602 
	C259.067596,56.201462 259.361298,55.811531 258.335571,53.296028 
	C258.795654,50.524117 259.363037,48.070011 259.204987,45.663544 
	C258.828278,39.927193 254.343262,36.832787 250.463074,33.047127 
	C249.925232,32.672523 249.578522,32.522655 249.231796,32.372787 
	C249.460190,32.940697 249.688568,33.508610 249.958435,34.453152 
	C250.293579,35.733978 251.003021,36.736214 250.816513,37.527199 
	C248.974915,45.337833 246.984680,53.113422 245.038605,61.261890 
	C245.361389,63.027576 245.682129,64.430313 246.002869,65.833054 
z"/>
<path fill="#F795A3" opacity="1.000000" stroke="none" 
	d="
M105.954544,63.884480 
	C107.973816,59.053890 110.324684,54.331150 111.938622,49.368736 
	C114.714142,40.834782 119.778557,33.792152 125.486626,27.122684 
	C126.747185,25.649807 128.438873,24.449175 130.129700,23.461603 
	C133.555740,21.460545 136.827072,23.258116 135.800064,27.004616 
	C134.254028,32.644604 131.948044,38.243393 128.984299,43.282856 
	C125.711517,48.847797 121.140045,53.632931 117.522911,59.018757 
	C115.925385,61.397442 115.285896,64.419548 114.811996,67.429710 
	C119.653610,64.229172 118.934929,56.710808 125.922112,54.810932 
	C126.636360,56.660576 127.072701,58.576893 128.068680,60.135605 
	C128.959595,61.529884 130.399368,62.615555 131.727753,63.673115 
	C132.586823,64.357033 134.269882,64.552429 134.519745,65.315239 
	C134.824814,66.246689 134.378036,67.960129 133.627792,68.612846 
	C129.386414,72.302872 125.630203,71.719215 121.855331,66.616844 
	C120.000862,69.166290 118.506996,71.862808 116.387642,73.912605 
	C114.920540,75.331558 112.590637,75.858444 110.646255,76.783920 
	C109.766388,74.788315 108.822784,72.817245 108.040161,70.784203 
	C107.754349,70.041748 107.851112,69.152023 107.382576,67.823441 
	C106.646057,66.173088 106.300301,65.028786 105.954544,63.884480 
M125.830070,36.742031 
	C123.780838,40.210892 121.731606,43.679752 119.682373,47.148613 
	C120.145416,47.410618 120.608467,47.672619 121.071510,47.934624 
	C123.076340,44.314671 125.081169,40.694717 127.706039,36.784203 
	C128.097122,35.659218 128.488190,34.534229 128.879257,33.409245 
	C128.646423,33.323418 128.413574,33.237595 128.180725,33.151768 
	C127.573799,34.194672 126.966873,35.237579 125.830070,36.742031 
z"/>
<path fill="#F795A3" opacity="1.000000" stroke="none" 
	d="
M86.003380,75.830185 
	C73.701477,74.082886 70.951576,62.324146 72.964691,51.787807 
	C75.186729,40.157974 80.891678,31.152021 91.329430,24.984186 
	C96.196632,22.108088 101.160858,22.044979 105.147156,24.535816 
	C107.276009,25.866028 108.046425,30.928774 107.781364,34.172230 
	C107.367149,39.240704 105.623405,44.213245 104.311348,49.191753 
	C103.186813,53.458683 100.455574,55.045769 95.419456,53.366798 
	C97.263092,46.465458 99.118942,39.518391 101.092339,32.131329 
	C96.801422,28.589750 90.001549,30.559786 85.945862,37.060204 
	C81.702377,43.861633 79.942177,51.424328 80.776176,59.039143 
	C81.204590,62.950775 83.149597,67.761307 88.233154,70.132660 
	C88.931389,70.522202 89.411964,70.349907 89.892540,70.177612 
	C90.380104,70.127701 90.867661,70.077805 91.773544,70.485321 
	C91.452278,71.956093 90.884727,73.195015 89.928497,73.924347 
	C88.794998,74.788895 87.326622,75.214394 86.003380,75.830185 
z"/>
<path fill="#F895A3" opacity="1.000000" stroke="none" 
	d="
M21.739361,92.238739 
	C17.280222,87.469734 12.794447,83.178726 8.982281,78.355324 
	C6.516273,75.235176 7.879756,71.743904 10.484784,69.042740 
	C13.439293,65.979210 16.358465,62.573105 21.430586,64.809364 
	C24.193123,66.027344 26.991089,67.164970 29.800259,68.350304 
	C30.213652,67.512230 30.773502,66.345161 31.360743,65.192032 
	C34.724510,58.586815 38.059086,56.673702 44.114426,58.097694 
	C49.201466,59.293987 54.652172,65.185371 55.085068,70.512535 
	C55.562824,76.391769 53.352459,81.484230 49.823578,85.344391 
	C43.391090,92.380753 36.014282,98.553825 29.661139,104.497910 
	C26.871847,100.127289 24.435120,96.309120 21.739361,92.238739 
M45.075840,82.438240 
	C45.667953,78.490807 47.197830,74.403786 46.635822,70.628143 
	C45.758595,64.734810 40.194820,62.997181 35.113628,66.347771 
	C33.357437,67.505821 31.739286,68.873199 30.184313,70.049477 
	C30.899052,71.441452 31.454336,72.522881 32.416859,74.397423 
	C28.830076,72.553719 26.180420,71.412750 23.766178,69.896851 
	C20.476915,67.831520 18.120310,69.849464 16.704384,72.010887 
	C15.626605,73.656113 15.404224,76.577095 16.078547,78.477188 
	C16.960150,80.961365 19.029671,83.054298 20.715313,85.216400 
	C24.089260,89.544029 27.549623,93.804283 31.209290,98.386574 
	C37.553391,95.736740 41.447090,89.660789 45.075840,82.438240 
z"/>
<path fill="#F795A3" opacity="1.000000" stroke="none" 
	d="
M45.076317,49.907520 
	C53.471889,51.788280 59.510498,57.253971 63.493050,64.254997 
	C68.445107,72.960342 67.108139,81.990379 60.626564,89.642693 
	C53.278553,98.317947 43.285748,103.483391 33.736588,109.161224 
	C33.434544,108.782677 33.132504,108.404121 32.830460,108.025566 
	C33.901047,107.177582 34.920315,106.253227 36.050434,105.493835 
	C44.231407,99.996552 52.251167,94.330017 56.953629,85.257294 
	C62.135639,75.259361 60.016647,69.504562 53.632374,61.271496 
	C51.365417,58.348064 48.056427,56.232677 45.101830,53.033192 
	C45.012463,51.514484 45.044392,50.711002 45.076317,49.907520 
z"/>
<path fill="#F695A4" opacity="1.000000" stroke="none" 
	d="
M45.062820,49.936077 
	C45.044392,50.711002 45.012463,51.514484 44.967686,52.719826 
	C39.192520,50.966282 39.192516,50.966278 42.775146,46.669357 
	C46.383984,42.341000 45.707748,40.454208 40.169819,38.970558 
	C37.551346,38.269047 35.002922,37.306061 32.473003,36.477989 
	C34.108776,29.267250 36.033237,28.461506 43.096741,28.674500 
	C45.279453,28.740316 48.262211,25.734993 49.631203,23.403379 
	C51.353168,20.470591 51.794384,16.785814 52.850422,13.215276 
	C55.713879,17.066195 53.566650,25.065727 48.854694,30.718317 
	C45.932262,34.224136 43.234047,32.995602 39.947968,30.789656 
	C38.738789,31.922733 37.483894,33.098652 35.850170,34.629559 
	C38.546864,35.168526 40.965618,35.117577 42.766769,36.147110 
	C45.020821,37.435520 47.404377,39.276398 48.569927,41.490540 
	C49.988914,44.186123 48.691807,46.429241 44.741425,46.869980 
	C44.601589,48.216190 44.853680,49.076283 45.105770,49.936375 
	C45.105770,49.936375 45.049324,49.964634 45.062820,49.936077 
z"/>
<path fill="#F794A3" opacity="1.000000" stroke="none" 
	d="
M337.996063,58.169968 
	C339.273529,61.671608 340.550995,65.173248 342.020569,69.201401 
	C343.597321,68.269707 345.455292,67.171867 347.543396,65.938019 
	C348.390259,67.282272 349.233032,68.620064 350.197876,70.151604 
	C348.196838,71.493752 346.356232,72.728569 344.515350,73.962975 
	C339.529053,77.306541 336.907684,76.494492 333.916687,71.357216 
	C333.234406,70.185371 333.726196,64.952492 329.334290,68.581612 
	C329.343353,62.580929 334.156494,60.805595 337.996063,58.169968 
z"/>
<path fill="#F696A4" opacity="1.000000" stroke="none" 
	d="
M262.950806,92.868362 
	C263.386993,93.270576 264.083801,93.440147 264.141785,93.314644 
	C264.880737,91.714851 265.455505,90.037758 266.219482,88.451370 
	C266.962067,86.909508 267.874878,85.449631 269.403442,82.721237 
	C270.510773,89.245712 271.395538,94.458923 272.280334,99.672142 
	C271.653229,99.842545 271.026154,100.012955 270.399048,100.183365 
	C269.597137,97.891579 268.795227,95.599800 267.730042,92.555519 
	C266.402893,95.419029 265.366943,97.654228 263.839264,100.950432 
	C262.203613,97.768707 260.881042,95.196014 259.377808,92.271820 
	C258.862823,94.636147 258.502930,96.748558 257.889191,98.784447 
	C257.734680,99.297028 256.800079,99.749115 256.159210,99.862221 
	C255.865540,99.914062 255.030594,99.009552 255.093796,98.655151 
	C255.975266,93.712952 256.969849,88.790916 257.936859,83.863968 
	C258.345947,83.895935 258.755005,83.927902 259.164062,83.959862 
	C260.414215,86.806107 261.664337,89.652351 262.950806,92.868362 
z"/>
<path fill="#F796A5" opacity="1.000000" stroke="none" 
	d="
M103.671097,94.227936 
	C103.430801,88.894814 106.323730,84.502197 109.946617,84.005096 
	C114.894211,83.326225 118.400230,85.325867 120.001717,89.739960 
	C121.351334,93.459839 119.694786,97.634521 116.192551,99.339508 
	C112.187126,101.289444 107.137032,100.356552 105.052101,97.197159 
	C104.528725,96.404076 104.301254,95.415703 103.671097,94.227936 
M115.452271,87.956131 
	C112.342056,86.188499 109.007736,86.049850 107.428986,89.427612 
	C106.133034,92.200348 106.227882,95.909065 110.359337,96.942650 
	C111.888390,97.325180 114.905869,96.858597 115.218521,96.022049 
	C116.069221,93.745911 115.837799,91.065331 115.452271,87.956131 
z"/>
<path fill="#F795A3" opacity="1.000000" stroke="none" 
	d="
M147.647308,44.140362 
	C149.324081,44.089249 150.717422,43.776947 152.253357,43.432686 
	C154.226273,46.399773 153.840836,47.804985 150.143799,49.951805 
	C146.119080,52.288898 144.307327,51.493221 141.209000,45.838718 
	C140.149704,46.559238 139.112701,47.264587 138.108429,47.947678 
	C137.759644,47.790665 137.264328,47.699276 137.239059,47.535412 
	C137.043808,46.269184 136.393768,44.668709 136.916748,43.777431 
	C138.132660,41.705276 139.685150,39.633121 141.603088,38.263981 
	C142.412720,37.686024 144.929214,38.441303 145.865341,39.386959 
	C146.861221,40.392986 146.904572,42.341942 147.647308,44.140362 
z"/>
<path fill="#F694A3" opacity="1.000000" stroke="none" 
	d="
M308.996887,96.749466 
	C308.996399,92.312462 308.996399,88.345604 308.996399,84.202148 
	C312.384186,87.645058 315.577576,90.890396 319.394226,94.769119 
	C319.999359,90.217918 320.426575,87.004913 320.853760,83.791908 
	C321.453400,83.897369 322.053009,84.002838 322.652649,84.108299 
	C322.652649,89.292259 322.652649,94.476212 322.652649,101.114952 
	C318.868622,96.982872 315.806244,93.638832 311.997284,89.479561 
	C311.997284,92.745697 312.119537,95.000626 311.939026,97.231049 
	C311.863495,98.164467 311.145447,99.045876 310.719482,99.950928 
	C310.145447,99.040482 309.571442,98.130043 308.996887,96.749466 
z"/>
<path fill="#F594A3" opacity="1.000000" stroke="none" 
	d="
M205.971466,84.524895 
	C208.967865,87.761864 211.691330,90.709351 214.482162,93.729767 
	C216.277054,90.520973 212.964905,86.181755 217.694107,83.196243 
	C217.694107,89.299057 217.694107,94.486839 217.694107,101.280304 
	C213.753754,97.084549 210.646240,93.775620 206.987823,89.880074 
	C206.987823,93.069191 207.063477,95.637032 206.931824,98.194206 
	C206.900940,98.794434 206.274857,99.538559 205.716904,99.865692 
	C205.424774,100.036980 204.214172,99.437408 204.219055,99.202568 
	C204.322983,94.189888 204.540680,89.179573 204.736267,84.168793 
	C205.057022,84.191002 205.377777,84.213211 205.971466,84.524895 
z"/>
<path fill="#F694A1" opacity="1.000000" stroke="none" 
	d="
M148.415253,96.587875 
	C148.700470,98.077927 148.906479,99.179153 149.112488,100.280388 
	C148.829239,100.510864 148.545990,100.741341 148.262726,100.971809 
	C145.376144,97.454163 142.489563,93.936516 139.400116,90.171654 
	C136.769318,94.024155 139.752670,98.103271 135.155640,101.015221 
	C135.155640,94.655800 135.155640,89.398453 135.155640,84.533760 
	C138.250381,87.373276 141.739471,90.574623 146.100540,94.576042 
	C146.100540,90.397667 146.100540,87.262505 146.100540,84.127342 
	C150.074936,87.807983 149.261749,91.995903 148.415253,96.587875 
z"/>
<path fill="#F999A8" opacity="1.000000" stroke="none" 
	d="
M287.186707,84.062576 
	C289.946198,84.012558 292.238922,84.012558 294.531647,84.012558 
	C294.757904,84.455208 294.984131,84.897858 295.210388,85.340515 
	C294.252136,85.889778 293.307007,86.463676 292.332153,86.981720 
	C291.242767,87.560661 290.126434,88.088913 289.021820,88.639221 
	C290.218445,89.097015 291.397797,89.610657 292.619110,89.988586 
	C293.212891,90.172318 293.885162,90.102295 294.521912,90.147156 
	C294.679230,90.646072 294.836578,91.144989 294.993896,91.643913 
	C293.188751,92.312698 291.383606,92.981483 289.228210,93.780029 
	C289.228210,94.392975 289.228210,95.463692 289.228210,96.521523 
	C291.281830,96.993790 293.259491,97.448586 295.237122,97.903374 
	C295.129639,98.464104 295.022156,99.024826 294.914642,99.585556 
	C292.108521,99.585556 289.302368,99.585556 285.743073,99.585556 
	C286.068451,94.432144 286.394196,89.272369 287.186707,84.062576 
z"/>
<path fill="#F696A4" opacity="1.000000" stroke="none" 
	d="
M84.077362,84.003998 
	C87.607872,84.013100 90.706062,84.034340 89.808708,88.768700 
	C86.514923,86.467087 82.883705,84.946747 80.118744,88.722488 
	C79.035179,90.202156 79.065804,93.720901 80.112953,95.301178 
	C82.904831,99.514465 86.475533,97.469505 89.674988,95.200516 
	C91.293053,100.136917 86.990318,99.985374 84.696693,100.499969 
	C80.898087,101.352211 76.206009,97.046577 76.007317,93.277969 
	C75.715431,87.741791 78.368790,84.524483 84.077362,84.003998 
z"/>
<path fill="#F694A1" opacity="1.000000" stroke="none" 
	d="
M201.019501,43.177704 
	C203.097397,40.317173 205.040039,37.701324 207.364517,35.486126 
	C207.991760,34.888363 210.101791,35.077019 210.927460,35.702137 
	C211.579651,36.195919 211.647491,37.996265 211.382477,39.070168 
	C210.451019,42.844662 209.234924,46.666260 204.137314,45.913651 
	C203.010162,45.747238 202.059586,44.384674 201.019501,43.177704 
z"/>
<path fill="#F695A4" opacity="1.000000" stroke="none" 
	d="
M168.115814,90.001846 
	C169.694702,90.527252 170.830215,91.048447 171.965744,91.569641 
	C170.203629,92.281219 168.441498,92.992798 166.454834,93.795052 
	C165.991898,95.607079 165.402023,97.916008 164.812134,100.224937 
	C164.285736,100.066628 163.759338,99.908318 163.232941,99.750008 
	C163.232941,94.680016 163.232941,89.610023 163.232941,84.270653 
	C166.071869,84.270653 168.800583,84.270653 171.529297,84.270653 
	C171.730774,84.700546 171.932251,85.130432 172.133728,85.560326 
	C170.869476,86.040039 169.592331,86.488960 168.345657,87.010681 
	C167.557159,87.340645 166.814133,87.779205 166.050705,88.169060 
	C166.591293,88.778587 167.131882,89.388107 168.115814,90.001846 
z"/>
<path fill="#F998A6" opacity="1.000000" stroke="none" 
	d="
M86.438370,75.902168 
	C87.326622,75.214394 88.794998,74.788895 89.928497,73.924347 
	C90.884727,73.195015 91.452278,71.956093 92.135338,70.560471 
	C96.468521,68.123642 100.858231,66.069077 105.601242,63.949501 
	C106.300301,65.028786 106.646057,66.173088 107.008972,67.678986 
	C107.026138,68.040581 107.011147,67.997902 106.831863,68.096428 
	C106.400253,68.341545 106.188034,68.532669 106.015915,68.768326 
	C104.924530,69.462433 103.833145,70.156540 102.217026,71.034119 
	C101.423866,71.373962 101.196228,71.576233 101.009369,71.824402 
	C96.660347,74.444138 92.267326,76.914017 86.438370,75.902168 
z"/>
<path fill="#F895A3" opacity="1.000000" stroke="none" 
	d="
M342.281677,45.199196 
	C339.692780,46.153873 337.382477,46.835861 335.072144,47.517853 
	C334.736847,45.992992 333.605652,43.865257 334.217346,43.057735 
	C335.962402,40.753983 338.152863,38.466919 340.681122,37.185902 
	C342.472107,36.278465 345.489166,36.582329 344.021606,40.399181 
	C343.453339,41.877094 343.042725,43.415604 342.281677,45.199196 
z"/>
<path fill="#F998A6" opacity="1.000000" stroke="none" 
	d="
M337.668091,58.012596 
	C334.156494,60.805595 329.343353,62.580929 329.027466,68.710999 
	C326.125031,73.484116 322.537903,75.717049 317.142853,72.452332 
	C317.662323,71.868332 318.352417,71.445267 319.064728,71.403870 
	C320.847504,71.300262 322.640320,71.369682 325.539093,71.369682 
	C323.806366,69.403099 322.990295,68.476875 322.105164,67.223801 
	C325.413910,64.387215 328.695374,61.729343 332.216187,59.439423 
	C333.657806,58.501801 335.616608,58.359394 337.668091,58.012596 
z"/>
<path fill="#F494A1" opacity="1.000000" stroke="none" 
	d="
M343.999634,91.159767 
	C343.999451,93.285980 344.206512,94.982796 343.929932,96.596725 
	C343.728485,97.772362 342.888824,98.838638 342.333679,99.953674 
	C341.889465,98.905045 341.125580,97.875320 341.062195,96.804153 
	C340.886047,93.827042 341.001068,90.832703 341.001068,87.949043 
	C340.703979,87.597565 340.546021,87.246178 340.282837,87.126808 
	C338.880493,86.490761 337.451813,85.912773 336.032227,85.314697 
	C337.579590,84.876740 339.104858,84.205505 340.679596,84.056244 
	C342.962219,83.839890 345.280609,84.000816 348.145660,84.000816 
	C346.563690,86.555016 345.281647,88.624931 343.999634,91.159767 
z"/>
<path fill="#FFA2B1" opacity="1.000000" stroke="none" 
	d="
M234.998428,99.828415 
	C234.834686,99.872498 234.670959,99.916580 234.250565,99.590942 
	C233.726273,98.480133 233.458633,97.739059 233.191010,96.997978 
	C233.144699,93.961769 233.098389,90.925568 233.368591,87.186432 
	C235.565033,85.893860 237.444931,85.304230 239.324844,84.714592 
	C239.362762,84.943573 239.400681,85.172554 239.438599,85.401527 
	C238.320282,85.946251 237.201981,86.490974 236.083679,87.035706 
	C235.135880,91.299355 238.384018,89.726112 240.515366,90.435883 
	C240.172104,91.489876 239.584747,92.153992 238.997375,92.818092 
	C237.990982,93.648651 236.984589,94.479218 235.978210,95.309784 
	C237.041306,95.889397 238.104385,96.469002 239.678329,97.341995 
	C239.458771,98.359543 238.728348,99.083725 237.997925,99.807907 
	C237.551346,99.853485 237.104752,99.899063 236.220398,99.764870 
	C235.462952,99.453415 235.201553,99.534523 234.998428,99.828415 
z"/>
<path fill="#F997A4" opacity="1.000000" stroke="none" 
	d="
M147.331085,27.207870 
	C146.313095,28.545551 145.766251,30.128757 144.764832,30.506334 
	C143.606964,30.942888 142.048859,30.317820 140.664520,30.153687 
	C140.842361,28.873487 140.688278,27.410204 141.271210,26.353458 
	C142.297302,24.493267 143.773697,22.881454 145.061539,21.165634 
	C145.748718,21.426611 146.435898,21.687586 147.123077,21.948563 
	C147.282486,23.605862 147.441895,25.263163 147.331085,27.207870 
z"/>
<path fill="#F794A0" opacity="1.000000" stroke="none" 
	d="
M189.001282,87.261078 
	C188.998245,91.220001 189.076691,94.711624 188.914200,98.192009 
	C188.885651,98.803368 187.847336,99.367577 187.275360,99.953552 
	C186.856613,99.387550 186.089340,98.830261 186.074951,98.254166 
	C185.971359,94.104698 185.950180,89.948906 186.098846,85.802147 
	C186.120407,85.200333 187.187073,84.635986 187.770142,84.054306 
	C188.180389,84.966194 188.590622,85.878075 189.001282,87.261078 
z"/>
<path fill="#FA98A7" opacity="1.000000" stroke="none" 
	d="
M254.924530,56.909798 
	C255.393997,58.099968 255.863449,59.290142 256.630920,60.876862 
	C253.511169,62.782715 250.093369,64.292023 246.339233,65.817200 
	C245.682129,64.430313 245.361389,63.027576 245.395950,61.307770 
	C247.462891,60.313419 249.174515,59.636131 251.097656,58.868366 
	C251.576981,58.619526 251.804184,58.415825 252.295410,58.037247 
	C253.374908,57.575081 254.149719,57.242443 254.924530,56.909798 
z"/>
<path fill="#FA98A7" opacity="1.000000" stroke="none" 
	d="
M187.424271,52.881687 
	C186.803345,52.936077 186.296524,52.914062 186.216660,52.718063 
	C184.987137,49.700706 189.203369,42.431229 192.811066,41.923782 
	C191.319199,45.606823 189.528091,49.165588 187.424271,52.881687 
z"/>
<path fill="#FA98A7" opacity="1.000000" stroke="none" 
	d="
M166.421295,52.885479 
	C164.655365,48.883533 167.613144,42.766079 171.784180,41.996643 
	C170.311905,45.599674 168.523193,49.163849 166.421295,52.885479 
z"/>
<path fill="#F694A1" opacity="1.000000" stroke="none" 
	d="
M236.515411,87.020073 
	C237.201981,86.490974 238.320282,85.946251 239.438599,85.401527 
	C239.400681,85.172554 239.362762,84.943573 239.324844,84.714592 
	C237.444931,85.304230 235.565033,85.893860 233.437775,86.735931 
	C233.790558,85.991783 234.265045,84.264824 235.014435,84.135918 
	C237.241318,83.752846 239.576370,83.998634 241.869156,83.998634 
	C241.980042,84.650269 242.090927,85.301910 242.201813,85.953545 
	C240.450256,86.303848 238.698685,86.654152 236.515411,87.020073 
z"/>
<path fill="#F694A1" opacity="1.000000" stroke="none" 
	d="
M238.395309,99.891373 
	C238.728348,99.083725 239.458771,98.359543 240.096756,97.406990 
	C240.653427,97.739082 241.302521,98.299553 241.951614,98.860031 
	C240.898636,99.231644 239.845673,99.603249 238.395309,99.891373 
z"/>
<path fill="#F694A1" opacity="1.000000" stroke="none" 
	d="
M239.342453,92.899345 
	C239.584747,92.153992 240.172104,91.489876 240.855988,90.505493 
	C241.293472,90.756523 241.634445,91.327820 241.975403,91.899117 
	C241.212769,92.259605 240.450134,92.620102 239.342453,92.899345 
z"/>
<path fill="#F795A3" opacity="1.000000" stroke="none" 
	d="
M45.060036,49.572392 
	C44.853680,49.076283 44.601589,48.216190 44.589859,47.189781 
	C44.891582,47.751778 44.952938,48.480095 45.060036,49.572392 
z"/>
<path fill="#F694A1" opacity="1.000000" stroke="none" 
	d="
M233.107849,97.341881 
	C233.458633,97.739059 233.726273,98.480133 234.004700,99.525856 
	C233.685226,99.115593 233.354965,98.400688 233.107849,97.341881 
z"/>
<path fill="#F998A6" opacity="1.000000" stroke="none" 
	d="
M89.642273,70.104927 
	C89.411964,70.349907 88.931389,70.522202 88.404579,70.407303 
	C88.702904,70.090828 89.047462,70.061539 89.642273,70.104927 
z"/>
<path fill="#F795A3" opacity="1.000000" stroke="none" 
	d="
M101.273529,71.861534 
	C101.196228,71.576233 101.423866,71.373962 101.903366,71.127289 
	C101.922195,71.324219 101.729935,71.611443 101.273529,71.861534 
z"/>
<path fill="#F795A3" opacity="1.000000" stroke="none" 
	d="
M106.262032,68.796257 
	C106.188034,68.532669 106.400253,68.341545 106.850334,68.109558 
	C106.991669,68.374229 106.811691,68.640900 106.262032,68.796257 
z"/>
<path fill="#F694A1" opacity="1.000000" stroke="none" 
	d="
M235.249115,99.891754 
	C235.201553,99.534523 235.462952,99.453415 235.888977,99.696198 
	C235.830139,99.856560 235.664963,99.905830 235.249115,99.891754 
z"/>
<path fill="#000000" opacity="1.000000" stroke="none" 
	d="
M294.547546,72.469971 
	C294.817474,71.929413 295.260651,71.594360 295.703796,71.259308 
	C295.681091,71.792679 295.658356,72.326042 295.359467,72.965851 
	C294.962463,72.940018 294.841614,72.807755 294.547546,72.469971 
z"/>
<path fill="#000000" opacity="1.000000" stroke="none" 
	d="
M285.871765,58.888435 
	C285.497833,59.306202 284.925568,59.535976 284.353271,59.765751 
	C284.504028,59.416584 284.654755,59.067421 285.034332,58.528770 
	C285.399872,58.459663 285.536621,58.580051 285.871765,58.888435 
z"/>
<path fill="#000000" opacity="1.000000" stroke="none" 
	d="
M250.886154,58.958843 
	C249.174515,59.636131 247.462891,60.313419 245.393921,60.944824 
	C246.984680,53.113422 248.974915,45.337833 250.816513,37.527199 
	C251.003021,36.736214 250.293579,35.733978 250.146393,34.255318 
	C250.413300,33.544521 250.533752,33.408192 250.654205,33.271862 
	C254.343262,36.832787 258.828278,39.927193 259.204987,45.663544 
	C259.363037,48.070011 258.795654,50.524117 258.090454,53.449318 
	C256.714691,54.939880 255.806580,55.937687 254.898483,56.935497 
	C254.898483,56.935501 254.946198,56.958065 254.935364,56.933933 
	C254.149719,57.242443 253.374908,57.575081 252.029633,57.998260 
	C251.268158,58.378815 251.077164,58.668831 250.886154,58.958843 
z"/>
<path fill="#FA98A7" opacity="1.000000" stroke="none" 
	d="
M255.259857,56.939598 
	C255.806580,55.937687 256.714691,54.939880 257.867920,53.788780 
	C259.361298,55.811531 259.067596,56.201462 255.259857,56.939598 
z"/>
<path fill="#000000" opacity="1.000000" stroke="none" 
	d="
M250.104889,33.878689 
	C249.688568,33.508610 249.460190,32.940697 249.231796,32.372787 
	C249.578522,32.522655 249.925232,32.672523 250.463074,33.047127 
	C250.533752,33.408192 250.413300,33.544521 250.104889,33.878689 
z"/>
<path fill="#000000" opacity="1.000000" stroke="none" 
	d="
M127.085999,37.074768 
	C125.081169,40.694717 123.076340,44.314671 121.071510,47.934624 
	C120.608467,47.672619 120.145416,47.410618 119.682373,47.148613 
	C121.731606,43.679752 123.780838,40.210892 126.273438,36.712654 
	C126.839859,36.813770 126.962929,36.944267 127.085999,37.074768 
z"/>
<path fill="#000000" opacity="1.000000" stroke="none" 
	d="
M126.538368,36.481880 
	C126.966873,35.237579 127.573799,34.194672 128.180725,33.151768 
	C128.413574,33.237595 128.646423,33.323418 128.879257,33.409245 
	C128.488190,34.534229 128.097122,35.659218 127.396027,36.929485 
	C126.962929,36.944267 126.839859,36.813770 126.538368,36.481880 
z"/>
<path fill="#000000" opacity="1.000000" stroke="none" 
	d="
M45.018990,82.831451 
	C41.447090,89.660789 37.553391,95.736740 31.209290,98.386574 
	C27.549623,93.804283 24.089260,89.544029 20.715313,85.216400 
	C19.029671,83.054298 16.960150,80.961365 16.078547,78.477188 
	C15.404224,76.577095 15.626605,73.656113 16.704384,72.010887 
	C18.120310,69.849464 20.476915,67.831520 23.766178,69.896851 
	C26.180420,71.412750 28.830076,72.553719 32.416859,74.397423 
	C31.454336,72.522881 30.899052,71.441452 30.184313,70.049477 
	C31.739286,68.873199 33.357437,67.505821 35.113628,66.347771 
	C40.194820,62.997181 45.758595,64.734810 46.635822,70.628143 
	C47.197830,74.403786 45.667953,78.490807 45.018990,82.831451 
z"/>
<path fill="#000000" opacity="1.000000" stroke="none" 
	d="
M115.743752,88.250580 
	C115.837799,91.065331 116.069221,93.745911 115.218521,96.022049 
	C114.905869,96.858597 111.888390,97.325180 110.359337,96.942650 
	C106.227882,95.909065 106.133034,92.200348 107.428986,89.427612 
	C109.007736,86.049850 112.342056,86.188499 115.743752,88.250580 
z"/>
<path fill="#F795A3" opacity="1.000000" stroke="none" 
	d="
M251.097656,58.868366 
	C251.077164,58.668831 251.268158,58.378815 251.724945,58.127792 
	C251.804184,58.415825 251.576981,58.619526 251.097656,58.868366 
z"/>
</svg>