<svg version="1.1" id="Layer_1" xmlns="http://www.w3.org/2000/svg" xmlns:xlink="http://www.w3.org/1999/xlink" x="0px" y="0px"
	 width="100%" viewBox="0 0 256 85" enable-background="new 0 0 256 85" xml:space="preserve">
<path fill="#000000" opacity="1.000000" stroke="none" 
	d="
M165.000000,86.000000 
	C110.000008,86.000000 55.500011,86.000000 1.000015,86.000000 
	C1.000010,57.666676 1.000010,29.333353 1.000005,1.000022 
	C86.333313,1.000015 171.666626,1.000015 256.999939,1.000007 
	C256.999969,29.333311 256.999969,57.666622 257.000000,85.999969 
	C226.500000,86.000000 196.000000,86.000000 165.000000,86.000000 
M245.964371,62.027149 
	C246.716644,61.322300 247.468918,60.617451 248.938202,59.240799 
	C244.782898,59.240799 242.004684,59.240799 239.226471,59.240799 
	C239.055191,59.663464 238.883911,60.086132 238.712631,60.508797 
	C239.764038,61.026703 240.815430,61.544609 241.981064,62.959389 
	C241.981064,65.948181 241.981064,68.936966 241.981064,71.925758 
	C246.542465,69.306709 244.193756,65.296875 245.964371,62.027149 
M36.148960,43.589973 
	C29.653086,38.894360 26.671593,39.753765 20.969675,48.062111 
	C19.840374,47.475544 18.660593,46.325863 17.551952,46.390797 
	C14.602214,46.563557 11.476505,46.762913 8.804495,47.874275 
	C5.512238,49.243614 5.167041,52.893864 6.228306,55.597229 
	C7.300247,58.327793 9.533654,60.823296 11.791791,62.817661 
	C15.568914,66.153580 19.976858,68.856911 20.276630,75.187286 
	C24.973034,71.190407 29.851227,67.927353 33.590816,63.665279 
	C40.670082,55.596912 41.733662,52.304497 38.346294,43.999260 
	C44.364880,50.463379 43.035366,58.629356 37.213734,65.183006 
	C34.188541,68.588577 30.517427,71.420372 27.138098,74.511360 
	C35.086403,71.366875 42.183243,67.436089 46.360592,59.352184 
	C49.093307,54.063900 48.340279,49.161499 45.260754,45.138741 
	C42.099075,41.008667 37.507580,37.973148 33.484547,34.407852 
	C37.615997,28.879351 34.123402,25.384932 26.304783,24.138577 
	C27.825792,23.581238 29.372671,23.533104 30.914698,23.419237 
	C32.082726,23.332989 33.500008,23.543797 34.364708,22.963871 
	C38.007915,20.520494 39.563313,14.805984 37.854534,9.327456 
	C36.769676,12.450809 36.231861,15.131109 34.919708,17.354408 
	C34.126659,18.698137 31.941721,20.333920 30.712801,20.100180 
	C26.873102,19.369869 23.941814,20.871168 23.294310,24.044758 
	C22.602625,27.434874 26.204283,27.485733 28.747408,28.076435 
	C31.492012,28.713930 33.710491,29.976637 30.570930,32.927689 
	C27.801895,35.530457 29.011227,36.800266 31.752653,38.442589 
	C33.866592,39.709007 35.404263,41.937344 36.148960,43.589973 
M74.048141,36.597805 
	C75.034393,32.183247 76.559639,27.807476 76.880806,23.345049 
	C77.364960,16.618088 73.936012,14.557295 67.298325,16.921371 
	C58.610844,20.015499 50.895309,31.605604 51.229164,40.562359 
	C51.679844,52.653320 60.909542,57.513371 70.417519,52.780792 
	C72.548264,51.720211 74.516083,50.332287 75.952103,49.462578 
	C77.101524,51.533821 78.053192,53.248703 79.004852,54.963585 
	C81.710052,53.012459 84.415260,51.061333 87.395691,48.911701 
	C91.242310,51.708042 91.242310,51.708042 97.252579,47.947395 
	C94.073891,44.690704 90.949326,41.489449 87.947105,38.413548 
	C90.627914,33.544823 93.683662,28.562645 96.103691,23.288754 
	C96.937965,21.470636 96.188263,18.925676 96.162132,16.712744 
	C94.035248,17.397444 91.371681,17.497118 89.875664,18.869511 
	C83.841209,24.405321 80.261787,31.673222 78.417404,39.447727 
	C76.983658,45.491299 72.683701,47.380661 67.934883,48.945641 
	C63.365753,50.451405 58.615646,47.329601 58.068577,42.587967 
	C57.351048,36.368874 58.939030,30.545671 62.474125,25.396030 
	C64.719177,22.125626 69.026192,21.529121 71.340645,23.249996 
	C70.311478,28.590956 69.346764,33.597450 68.113693,39.996586 
	C71.054855,38.677002 72.473686,38.040424 74.048141,36.597805 
M153.441910,46.071205 
	C152.086746,46.596088 150.731583,47.120975 149.376144,47.645962 
	C149.068420,46.798309 148.676239,45.926208 148.441452,45.013615 
	C148.198578,44.069485 148.223145,43.049728 147.930695,42.126404 
	C146.932480,38.974735 145.216858,39.043865 142.513321,40.768539 
	C138.970306,43.028725 137.117355,48.854134 130.355347,46.325329 
	C130.944977,44.367218 131.338272,42.339703 132.149994,40.496449 
	C134.932617,34.177700 138.083405,28.008635 140.554565,21.575363 
	C141.068756,20.236773 139.273682,18.011141 138.542831,16.194305 
	C137.069214,16.984327 134.978195,17.396309 134.224533,18.627165 
	C130.065414,25.419615 126.247536,32.304012 125.739296,40.681274 
	C125.609329,42.823345 122.515282,45.006107 120.396057,46.680336 
	C119.708725,47.223339 117.787903,46.204994 116.431290,45.900822 
	C117.031479,43.679649 117.392296,41.357594 118.277740,39.256641 
	C120.713165,33.477890 123.611366,27.881325 125.775360,22.009573 
	C126.355423,20.435642 124.962204,18.134468 124.474861,16.167150 
	C122.648529,17.150522 119.854301,17.685099 119.155838,19.191441 
	C115.171089,27.785149 111.671135,36.604408 108.064789,45.371025 
	C107.837234,45.924168 107.857414,47.085922 108.176926,47.279205 
	C111.457939,49.264004 114.662323,52.017277 118.227486,52.653118 
	C120.413452,53.042976 123.188911,50.127441 124.493942,49.383537 
	C127.867149,50.711708 130.936249,53.057285 133.604462,52.666386 
	C136.558914,52.233547 139.146713,49.298069 142.076889,47.329700 
	C142.748459,48.643192 143.108444,50.634499 144.131927,51.071342 
	C146.047256,51.888855 148.720016,52.625225 150.383652,51.868851 
	C152.091614,51.092316 157.039932,51.097397 153.441910,46.071205 
M232.914169,29.300556 
	C233.483536,25.917589 236.776917,22.633684 232.420425,17.784592 
	C228.962646,23.961758 226.506027,30.054110 222.555573,34.938145 
	C218.439163,40.027313 212.881851,43.950996 207.243240,49.024231 
	C207.056900,45.977360 206.948318,44.201981 206.827042,42.218864 
	C205.616806,42.061234 204.477814,41.912884 202.238846,41.621262 
	C204.357300,40.269356 205.717346,39.805122 206.401520,38.854473 
	C207.126617,37.846943 207.209412,36.377174 207.572739,35.109291 
	C206.408096,34.889259 204.638199,34.070156 204.171875,34.541298 
	C199.185928,39.578850 190.115097,40.994419 189.924042,50.320454 
	C189.896820,51.649273 189.588867,54.028011 189.932892,54.128204 
	C191.523788,54.591526 193.603058,55.023396 194.942154,54.347225 
	C197.378235,53.117126 199.413925,51.094128 201.684601,49.349834 
	C202.543411,54.927567 206.294571,52.829762 209.537582,52.519554 
	C211.333679,56.941650 213.763214,57.491554 217.405365,53.997387 
	C219.452866,52.033081 221.343231,49.904972 223.304382,47.850655 
	C222.206207,49.145084 221.108047,50.439514 220.009872,51.733944 
	C222.299744,51.960194 224.982407,51.501068 226.803726,52.544888 
	C231.705109,55.353928 232.907928,49.228279 236.390701,48.808376 
	C236.720932,49.481815 236.923111,49.916607 237.144241,50.341537 
	C239.576385,55.014992 245.672379,55.278446 248.532532,50.739220 
	C248.937332,50.096756 248.818695,48.730312 248.378891,48.080067 
	C248.052933,47.598175 246.750641,47.478958 245.996933,47.663193 
	C245.149582,47.870323 244.429901,48.599785 243.566086,49.159420 
	C242.983475,47.117439 242.464264,45.426075 242.020004,43.715244 
	C240.944214,39.572300 239.485611,39.181919 236.315643,42.195747 
	C234.362442,44.052750 232.381927,45.881046 230.413681,47.722229 
	C229.885727,47.523716 229.357773,47.325199 228.829819,47.126686 
	C228.829819,44.920139 228.412857,42.611530 228.922424,40.529709 
	C229.801773,36.937183 231.256973,33.485603 232.914169,29.300556 
M185.532532,22.016075 
	C182.341125,19.839939 179.316101,17.337732 175.902985,15.596050 
	C173.400253,14.318933 168.833832,18.158623 170.217697,20.066090 
	C173.272278,24.276455 171.340530,28.363283 170.906433,32.407310 
	C170.375748,37.351254 169.099136,42.215130 167.947357,48.128777 
	C168.380814,50.620884 169.031586,54.362457 169.865570,59.157372 
	C173.224670,56.309872 175.847504,55.052334 174.186737,51.134571 
	C173.782944,50.182026 175.491165,47.816597 176.779114,46.796043 
	C178.374496,45.531902 180.494507,44.850677 182.473038,44.162510 
	C193.009521,40.497757 193.141113,28.696848 185.532532,22.016075 
M187.074478,71.000648 
	C187.156540,71.144485 187.215347,71.312187 187.329346,71.423256 
	C187.398239,71.490372 187.625275,71.524231 187.658279,71.480408 
	C188.667465,70.140640 189.661362,68.789368 190.460358,67.707123 
	C191.273865,69.138039 192.110153,70.609024 192.946442,72.080009 
	C193.399048,71.884476 193.851654,71.688942 194.304260,71.493408 
	C193.639648,67.422180 192.975037,63.350956 192.310410,59.279732 
	C191.905380,59.292877 191.500351,59.306023 191.095306,59.319172 
	C190.021545,61.553799 188.947769,63.788425 187.767822,66.244057 
	C186.445724,63.747494 185.392563,61.758751 183.660690,58.488388 
	C182.569748,63.996063 181.799347,67.885513 181.028931,71.774971 
	C181.448212,71.936699 181.867477,72.098434 182.286743,72.260170 
	C183.182999,70.813362 184.079254,69.366554 185.087723,67.738609 
	C185.787781,68.774681 186.310898,69.548866 187.074478,71.000648 
M152.101593,69.492905 
	C153.151108,70.368095 154.200638,71.243279 155.570953,72.385986 
	C156.595016,61.692986 156.439972,60.859440 152.952148,59.147728 
	C152.952148,61.386749 152.952148,63.431179 152.952148,65.475609 
	C152.472153,65.815201 151.992172,66.154800 151.512177,66.494392 
	C149.659073,63.856911 147.805969,61.219433 145.260712,57.596825 
	C144.573013,70.668037 144.573013,70.668037 147.951508,71.794426 
	C147.951508,69.620071 147.951508,67.580330 147.951508,64.143036 
	C149.708588,66.448006 150.653809,67.687981 152.101593,69.492905 
M77.470078,59.927040 
	C73.301216,62.691521 72.549118,67.710930 75.916847,70.358154 
	C78.572144,72.445374 81.764091,72.856674 83.806244,70.315094 
	C85.301048,68.454720 86.308441,65.048767 85.659409,62.896805 
	C84.741760,59.854210 81.682640,58.286003 77.470078,59.927040 
M230.009399,66.189560 
	C229.879715,63.792671 229.750046,61.395779 229.620361,58.998890 
	C229.160217,59.016937 228.700058,59.034985 228.239914,59.053032 
	C228.092621,61.212021 227.945312,63.371010 227.798019,65.529999 
	C227.302902,65.918472 226.807800,66.306946 226.312683,66.695427 
	C224.416199,64.166023 222.519699,61.636620 220.319977,58.702785 
	C220.319977,63.749233 220.319977,67.792404 220.319977,71.835571 
	C220.728226,71.950249 221.136475,72.064926 221.544724,72.179604 
	C222.262604,70.213959 222.980484,68.248314 223.691467,66.301529 
	C225.882736,68.346527 227.979477,70.303314 230.908066,73.036415 
	C230.472137,70.135498 230.240234,68.592247 230.009399,66.189560 
M166.022995,71.443810 
	C168.591293,71.937836 171.367325,73.173332 172.981171,69.703659 
	C171.069519,69.000175 169.401855,68.386482 167.734177,67.772781 
	C167.906143,67.328987 168.078094,66.885185 168.250061,66.441383 
	C169.824417,66.097618 171.398788,65.753853 172.973145,65.410080 
	C172.950684,65.118172 172.928223,64.826271 172.905746,64.534363 
	C171.262665,64.128716 169.619568,63.723064 167.976471,63.317417 
	C168.012115,63.027287 168.047760,62.737156 168.083389,62.447025 
	C169.700546,62.166897 171.317703,61.886768 172.934860,61.606644 
	C172.989594,61.093468 173.044327,60.580296 173.099060,60.067123 
	C171.137009,59.728302 169.033569,58.825752 167.267532,59.268627 
	C166.258072,59.521774 165.358978,61.916706 165.190826,63.433838 
	C164.922638,65.853310 165.305328,68.344940 166.022995,71.443810 
M96.060356,70.890762 
	C96.676758,70.850555 97.819664,70.867172 97.831055,70.761658 
	C98.019379,69.016861 98.065498,67.256721 98.143463,65.500015 
	C98.512756,65.194237 98.882050,64.888451 99.251343,64.582672 
	C101.225647,67.046478 103.199951,69.510284 105.453125,72.322098 
	C105.453125,67.199089 105.453125,63.133728 105.453125,59.068371 
	C105.090401,59.054203 104.727676,59.040035 104.364952,59.025867 
	C104.139862,61.244869 103.914764,63.463867 103.654442,66.030235 
	C101.011131,63.511803 98.812859,61.417381 96.006004,58.743126 
	C96.006004,63.116840 96.006004,66.564102 96.060356,70.890762 
M106.487274,36.011253 
	C107.771309,34.671185 109.055336,33.331116 110.339371,31.991049 
	C109.986771,31.646370 109.634171,31.301691 109.281570,30.957012 
	C107.981049,31.258732 106.680534,31.560453 106.528511,31.595722 
	C104.677597,29.657488 103.411987,28.332165 102.146370,27.006844 
	C100.188667,28.892422 98.230965,30.777998 96.848946,32.109097 
	C99.585449,34.012676 101.117546,35.279282 102.837914,36.190365 
	C103.696976,36.645313 104.900177,36.450413 106.487274,36.011253 
M64.820358,68.451042 
	C63.904598,68.452187 62.985287,68.505165 62.073872,68.442795 
	C60.561115,68.339249 58.367882,68.701591 57.718533,67.877296 
	C56.921383,66.865372 56.761230,64.206772 57.524799,63.411938 
	C58.398781,62.502174 60.586365,62.822575 62.209354,62.676903 
	C63.084003,62.598400 63.971493,62.662930 65.389328,62.662930 
	C62.785999,58.786335 59.991119,57.973396 56.519611,60.396343 
	C53.600460,62.433765 53.090210,66.646797 55.288742,69.554283 
	C57.768406,72.833527 60.930206,72.732162 64.820358,68.451042 
M210.143112,69.693069 
	C208.801102,69.266624 207.459076,68.840179 204.931854,68.037109 
	C207.119873,66.713135 208.536682,65.855820 210.441956,64.702942 
	C208.664291,64.169647 207.328903,63.769039 205.572845,63.242229 
	C207.548157,62.083733 208.956100,61.257992 210.364029,60.432251 
	C210.177460,60.075470 209.990875,59.718685 209.804306,59.361904 
	C207.613403,59.361904 205.422501,59.361904 203.032242,59.361904 
	C203.032242,62.144222 202.886002,64.621796 203.085800,67.071136 
	C203.210251,68.596802 203.734421,71.305634 204.292786,71.361839 
	C206.310104,71.564911 208.417862,70.869293 210.143112,69.693069 
M117.384392,71.933434 
	C118.178848,70.233047 118.973305,68.532654 120.059471,66.207932 
	C120.427528,66.118355 121.715263,65.804939 123.003006,65.491524 
	C122.996208,65.193695 122.989410,64.895859 122.982613,64.598022 
	C121.648018,64.193016 120.313423,63.788006 118.630013,63.277145 
	C120.540955,62.071064 121.965164,61.172180 123.389381,60.273293 
	C123.219879,59.953220 123.050377,59.633144 122.880875,59.313068 
	C120.669914,59.313068 118.458961,59.313068 115.786438,59.313068 
	C116.033211,63.670532 116.264084,67.747040 117.384392,71.933434 
M245.734039,27.622972 
	C244.528122,27.214983 242.850845,26.100554 242.204803,26.531637 
	C240.275650,27.818878 238.750687,29.711884 237.067886,31.368324 
	C238.488068,32.329063 239.908249,33.289803 241.328445,34.250549 
	C242.636658,32.236095 243.944870,30.221643 245.734039,27.622972 
M145.555130,26.979025 
	C144.562759,28.720739 143.570389,30.462452 142.310120,32.674377 
	C149.844772,33.107815 151.386215,31.435938 150.439651,24.569469 
	C148.895447,25.224417 147.505966,25.813745 145.555130,26.979025 
M135.010223,66.395782 
	C135.010223,64.002411 135.010223,61.609035 135.010223,58.828964 
	C130.832184,61.689468 130.964417,69.722610 135.010330,71.887444 
	C135.010330,70.225159 135.010330,68.763115 135.010223,66.395782 
M102.800476,16.104204 
	C100.516167,18.164230 98.309700,20.231983 102.279076,23.528736 
	C103.605446,21.633808 104.890999,20.180027 105.628006,18.487392 
	C105.823433,18.038576 104.332008,16.855268 102.800476,16.104204 
z"/>
<path fill="#F896A4" opacity="1.000000" stroke="none" 
	d="
M73.970337,37.000828 
	C72.473686,38.040424 71.054855,38.677002 68.113693,39.996586 
	C69.346764,33.597450 70.311478,28.590956 71.340645,23.249996 
	C69.026192,21.529121 64.719177,22.125626 62.474125,25.396030 
	C58.939030,30.545671 57.351048,36.368874 58.068577,42.587967 
	C58.615646,47.329601 63.365753,50.451405 67.934883,48.945641 
	C72.683701,47.380661 76.983658,45.491299 78.417404,39.447727 
	C80.261787,31.673222 83.841209,24.405321 89.875664,18.869511 
	C91.371681,17.497118 94.035248,17.397444 96.162132,16.712744 
	C96.188263,18.925676 96.937965,21.470636 96.103691,23.288754 
	C93.683662,28.562645 90.627914,33.544823 87.947105,38.413548 
	C90.949326,41.489449 94.073891,44.690704 97.252579,47.947395 
	C91.242310,51.708042 91.242310,51.708042 87.395691,48.911701 
	C84.415260,51.061333 81.710052,53.012459 79.004852,54.963585 
	C78.053192,53.248703 77.101524,51.533821 75.952103,49.462578 
	C74.516083,50.332287 72.548264,51.720211 70.417519,52.780792 
	C60.909542,57.513371 51.679844,52.653320 51.229164,40.562359 
	C50.895309,31.605604 58.610844,20.015499 67.298325,16.921371 
	C73.936012,14.557295 77.364960,16.618088 76.880806,23.345049 
	C76.559639,27.807476 75.034393,32.183247 73.970337,37.000828 
M84.230919,41.301353 
	C83.744423,42.664608 83.257919,44.027863 82.771416,45.391117 
	C83.163292,45.509796 83.555168,45.628479 83.947044,45.747158 
	C84.291412,44.123833 84.635773,42.500511 84.230919,41.301353 
z"/>
<path fill="#F896A5" opacity="1.000000" stroke="none" 
	d="
M153.734299,46.320461 
	C157.039932,51.097397 152.091614,51.092316 150.383652,51.868851 
	C148.720016,52.625225 146.047256,51.888855 144.131927,51.071342 
	C143.108444,50.634499 142.748459,48.643192 142.076889,47.329700 
	C139.146713,49.298069 136.558914,52.233547 133.604462,52.666386 
	C130.936249,53.057285 127.867149,50.711708 124.493942,49.383537 
	C123.188911,50.127441 120.413452,53.042976 118.227486,52.653118 
	C114.662323,52.017277 111.457939,49.264004 108.176926,47.279205 
	C107.857414,47.085922 107.837234,45.924168 108.064789,45.371025 
	C111.671135,36.604408 115.171089,27.785149 119.155838,19.191441 
	C119.854301,17.685099 122.648529,17.150522 124.474861,16.167149 
	C124.962204,18.134468 126.355423,20.435642 125.775360,22.009573 
	C123.611366,27.881325 120.713165,33.477890 118.277740,39.256641 
	C117.392296,41.357594 117.031479,43.679649 116.431290,45.900822 
	C117.787903,46.204994 119.708725,47.223339 120.396057,46.680336 
	C122.515282,45.006107 125.609329,42.823345 125.739296,40.681274 
	C126.247536,32.304012 130.065414,25.419615 134.224533,18.627165 
	C134.978195,17.396309 137.069214,16.984327 138.542831,16.194305 
	C139.273682,18.011141 141.068756,20.236773 140.554565,21.575363 
	C138.083405,28.008635 134.932617,34.177700 132.149994,40.496449 
	C131.338272,42.339703 130.944977,44.367218 130.355347,46.325329 
	C137.117355,48.854134 138.970306,43.028725 142.513321,40.768539 
	C145.216858,39.043865 146.932480,38.974735 147.930695,42.126404 
	C148.223145,43.049728 148.198578,44.069485 148.441452,45.013615 
	C148.676239,45.926208 149.068420,46.798309 149.376144,47.645962 
	C150.731583,47.120975 152.086746,46.596088 153.734299,46.320461 
z"/>
<path fill="#F996A5" opacity="1.000000" stroke="none" 
	d="
M232.692352,29.637718 
	C231.256973,33.485603 229.801773,36.937183 228.922424,40.529709 
	C228.412857,42.611530 228.829819,44.920139 228.829819,47.126686 
	C229.357773,47.325199 229.885727,47.523716 230.413681,47.722229 
	C232.381927,45.881046 234.362442,44.052750 236.315643,42.195747 
	C239.485611,39.181919 240.944214,39.572300 242.020004,43.715244 
	C242.464264,45.426075 242.983475,47.117439 243.566086,49.159420 
	C244.429901,48.599785 245.149582,47.870323 245.996933,47.663193 
	C246.750641,47.478958 248.052933,47.598175 248.378891,48.080067 
	C248.818695,48.730312 248.937332,50.096756 248.532532,50.739220 
	C245.672379,55.278446 239.576385,55.014992 237.144241,50.341537 
	C236.923111,49.916607 236.720932,49.481815 236.390701,48.808376 
	C232.907928,49.228279 231.705109,55.353928 226.803726,52.544888 
	C224.982407,51.501068 222.299744,51.960194 220.009872,51.733944 
	C221.108047,50.439514 222.206207,49.145084 223.304382,47.850655 
	C221.343231,49.904972 219.452866,52.033081 217.405365,53.997387 
	C213.763214,57.491554 211.333679,56.941650 209.537582,52.519554 
	C206.294571,52.829762 202.543411,54.927567 201.684601,49.349834 
	C199.413925,51.094128 197.378235,53.117126 194.942154,54.347225 
	C193.603058,55.023396 191.523788,54.591526 189.932892,54.128204 
	C189.588867,54.028011 189.896820,51.649273 189.924042,50.320454 
	C190.115097,40.994419 199.185928,39.578850 204.171875,34.541298 
	C204.638199,34.070156 206.408096,34.889259 207.572723,35.109287 
	C207.209412,36.377174 207.126617,37.846943 206.401520,38.854473 
	C205.717346,39.805122 204.357300,40.269356 202.238846,41.621262 
	C204.477814,41.912884 205.616806,42.061234 206.827042,42.218864 
	C206.948318,44.201981 207.056900,45.977360 207.243240,49.024231 
	C212.881851,43.950996 218.439163,40.027313 222.555573,34.938145 
	C226.506027,30.054110 228.962646,23.961758 232.420425,17.784592 
	C236.776917,22.633684 233.483536,25.917589 232.692352,29.637718 
z"/>
<path fill="#F896A5" opacity="1.000000" stroke="none" 
	d="
M185.782990,22.279102 
	C193.141113,28.696848 193.009521,40.497757 182.473038,44.162510 
	C180.494507,44.850677 178.374496,45.531902 176.779114,46.796043 
	C175.491165,47.816597 173.782944,50.182026 174.186737,51.134571 
	C175.847504,55.052334 173.224670,56.309872 169.865570,59.157372 
	C169.031586,54.362457 168.380814,50.620884 167.947357,48.128777 
	C169.099136,42.215130 170.375748,37.351254 170.906433,32.407310 
	C171.340530,28.363283 173.272278,24.276455 170.217697,20.066090 
	C168.833832,18.158623 173.400253,14.318933 175.902985,15.596050 
	C179.316101,17.337732 182.341125,19.839939 185.782990,22.279102 
M177.238846,31.883778 
	C176.446869,35.445538 175.654892,39.007301 174.862915,42.569061 
	C175.314743,42.941792 175.766571,43.314526 176.218384,43.687260 
	C179.142761,40.989315 183.664856,38.714474 184.524139,35.469666 
	C185.319641,32.465733 182.196091,28.423969 180.798370,24.839237 
	C180.294113,25.000877 179.789856,25.162518 179.285599,25.324158 
	C178.741501,27.278397 178.197403,29.232635 177.238846,31.883778 
z"/>
<path fill="#F896A5" opacity="1.000000" stroke="none" 
	d="
M37.310989,43.742443 
	C41.733662,52.304497 40.670082,55.596912 33.590816,63.665279 
	C29.851227,67.927353 24.973034,71.190407 20.276630,75.187286 
	C19.976858,68.856911 15.568914,66.153580 11.791791,62.817661 
	C9.533654,60.823296 7.300247,58.327793 6.228306,55.597229 
	C5.167041,52.893864 5.512238,49.243614 8.804495,47.874275 
	C11.476505,46.762913 14.602214,46.563557 17.551952,46.390797 
	C18.660593,46.325863 19.840374,47.475544 20.969675,48.062111 
	C26.671593,39.753765 29.653086,38.894360 36.654934,43.632755 
	C37.160908,43.675537 37.310989,43.742443 37.310989,43.742443 
M17.071621,49.999493 
	C15.182332,50.706387 12.427552,50.919342 11.659068,52.265888 
	C10.959010,53.492538 11.931926,56.296898 13.012536,57.797112 
	C15.956221,61.883835 19.346918,65.648575 22.680510,69.686264 
	C28.692289,66.626884 31.657476,60.856209 33.754108,54.598442 
	C34.827137,51.395809 31.755581,46.387367 29.012001,46.026936 
	C25.979156,45.628498 22.595240,49.118126 22.331793,53.200954 
	C20.754473,52.127777 19.301580,51.139259 17.071621,49.999493 
z"/>
<path fill="#F796A4" opacity="1.000000" stroke="none" 
	d="
M37.828644,43.870850 
	C37.310989,43.742443 37.160908,43.675537 37.179535,43.706757 
	C35.404263,41.937344 33.866592,39.709007 31.752653,38.442589 
	C29.011227,36.800266 27.801895,35.530457 30.570930,32.927689 
	C33.710491,29.976637 31.492012,28.713930 28.747408,28.076435 
	C26.204283,27.485733 22.602625,27.434874 23.294310,24.044758 
	C23.941814,20.871168 26.873102,19.369869 30.712801,20.100180 
	C31.941721,20.333920 34.126659,18.698137 34.919708,17.354408 
	C36.231861,15.131109 36.769676,12.450809 37.854534,9.327456 
	C39.563313,14.805984 38.007915,20.520494 34.364708,22.963871 
	C33.500008,23.543797 32.082726,23.332989 30.914698,23.419237 
	C29.372671,23.533104 27.825792,23.581238 26.304783,24.138577 
	C34.123402,25.384932 37.615997,28.879351 33.484547,34.407852 
	C37.507580,37.973148 42.099075,41.008667 45.260754,45.138741 
	C48.340279,49.161499 49.093307,54.063900 46.360592,59.352184 
	C42.183243,67.436089 35.086403,71.366875 27.138098,74.511360 
	C30.517427,71.420372 34.188541,68.588577 37.213734,65.183006 
	C43.035366,58.629356 44.364880,50.463379 37.828644,43.870850 
z"/>
<path fill="#F595A3" opacity="1.000000" stroke="none" 
	d="
M186.954239,70.661850 
	C186.310898,69.548866 185.787781,68.774681 185.087723,67.738609 
	C184.079254,69.366554 183.182999,70.813362 182.286743,72.260170 
	C181.867477,72.098434 181.448212,71.936699 181.028931,71.774971 
	C181.799347,67.885513 182.569748,63.996063 183.660690,58.488388 
	C185.392563,61.758751 186.445724,63.747494 187.767822,66.244057 
	C188.947769,63.788425 190.021545,61.553799 191.095306,59.319172 
	C191.500351,59.306023 191.905380,59.292877 192.310410,59.279732 
	C192.975037,63.350956 193.639648,67.422180 194.304260,71.493408 
	C193.851654,71.688942 193.399048,71.884476 192.946442,72.080009 
	C192.110153,70.609024 191.273865,69.138039 190.460358,67.707123 
	C189.661362,68.789368 188.667465,70.140640 187.658279,71.480408 
	C187.625275,71.524231 187.398239,71.490372 187.329346,71.423256 
	C187.215347,71.312187 187.156540,71.144485 186.954239,70.661850 
z"/>
<path fill="#F595A3" opacity="1.000000" stroke="none" 
	d="
M151.850311,69.210426 
	C150.653809,67.687981 149.708588,66.448006 147.951508,64.143036 
	C147.951508,67.580330 147.951508,69.620071 147.951508,71.794426 
	C144.573013,70.668037 144.573013,70.668037 145.260712,57.596825 
	C147.805969,61.219433 149.659073,63.856911 151.512177,66.494392 
	C151.992172,66.154800 152.472153,65.815201 152.952148,65.475609 
	C152.952148,63.431179 152.952148,61.386749 152.952148,59.147728 
	C156.439972,60.859440 156.595016,61.692986 155.570953,72.385986 
	C154.200638,71.243279 153.151108,70.368095 151.850311,69.210426 
z"/>
<path fill="#F795A3" opacity="1.000000" stroke="none" 
	d="
M77.779816,59.677139 
	C81.682640,58.286003 84.741760,59.854210 85.659409,62.896805 
	C86.308441,65.048767 85.301048,68.454720 83.806244,70.315094 
	C81.764091,72.856674 78.572144,72.445374 75.916847,70.358154 
	C72.549118,67.710930 73.301216,62.691521 77.779816,59.677139 
M82.907005,63.445816 
	C81.051743,63.347614 79.129555,62.946808 77.381531,63.333450 
	C76.849007,63.451241 76.160431,66.455544 76.649704,66.888992 
	C77.844978,67.947884 79.686752,68.277000 81.268272,68.899895 
	C81.864555,67.332245 82.460846,65.764603 82.907005,63.445816 
z"/>
<path fill="#F795A3" opacity="1.000000" stroke="none" 
	d="
M230.008865,66.619278 
	C230.240234,68.592247 230.472137,70.135498 230.908066,73.036415 
	C227.979477,70.303314 225.882736,68.346527 223.691467,66.301529 
	C222.980484,68.248314 222.262604,70.213959 221.544724,72.179604 
	C221.136475,72.064926 220.728226,71.950249 220.319977,71.835571 
	C220.319977,67.792404 220.319977,63.749233 220.319977,58.702785 
	C222.519699,61.636620 224.416199,64.166023 226.312683,66.695427 
	C226.807800,66.306946 227.302902,65.918472 227.798019,65.529999 
	C227.945312,63.371010 228.092621,61.212021 228.239914,59.053032 
	C228.700058,59.034985 229.160217,59.016937 229.620361,58.998890 
	C229.750046,61.395779 229.879715,63.792671 230.008865,66.619278 
z"/>
<path fill="#F48D9B" opacity="1.000000" stroke="none" 
	d="
M165.717896,71.124931 
	C165.305328,68.344940 164.922638,65.853310 165.190826,63.433838 
	C165.358978,61.916706 166.258072,59.521774 167.267532,59.268627 
	C169.033569,58.825752 171.137009,59.728302 173.099060,60.067123 
	C173.044327,60.580296 172.989594,61.093468 172.934860,61.606644 
	C171.317703,61.886768 169.700546,62.166897 168.083389,62.447025 
	C168.047760,62.737156 168.012115,63.027287 167.976471,63.317417 
	C169.619568,63.723064 171.262665,64.128716 172.905746,64.534363 
	C172.928223,64.826271 172.950684,65.118172 172.973145,65.410080 
	C171.398788,65.753853 169.824417,66.097618 168.250061,66.441383 
	C168.078094,66.885185 167.906143,67.328987 167.734177,67.772781 
	C169.401855,68.386482 171.069519,69.000175 172.981171,69.703659 
	C171.367325,73.173332 168.591293,71.937836 165.717896,71.124931 
z"/>
<path fill="#F494A0" opacity="1.000000" stroke="none" 
	d="
M96.033180,70.451065 
	C96.006004,66.564102 96.006004,63.116840 96.006004,58.743126 
	C98.812859,61.417381 101.011131,63.511803 103.654442,66.030235 
	C103.914764,63.463867 104.139862,61.244869 104.364952,59.025867 
	C104.727676,59.040035 105.090401,59.054203 105.453125,59.068371 
	C105.453125,63.133728 105.453125,67.199089 105.453125,72.322098 
	C103.199951,69.510284 101.225647,67.046478 99.251343,64.582672 
	C98.882050,64.888451 98.512756,65.194237 98.143463,65.500015 
	C98.065498,67.256721 98.019379,69.016861 97.831055,70.761658 
	C97.819664,70.867172 96.676758,70.850555 96.033180,70.451065 
z"/>
<path fill="#F896A5" opacity="1.000000" stroke="none" 
	d="
M106.217499,36.280350 
	C104.900177,36.450413 103.696976,36.645313 102.837914,36.190365 
	C101.117546,35.279282 99.585449,34.012676 96.848946,32.109097 
	C98.230965,30.777998 100.188667,28.892422 102.146370,27.006844 
	C103.411987,28.332165 104.677597,29.657488 106.528511,31.595722 
	C106.680534,31.560453 107.981049,31.258732 109.281570,30.957012 
	C109.634171,31.301691 109.986771,31.646370 110.339371,31.991049 
	C109.055336,33.331116 107.771309,34.671185 106.217499,36.280350 
z"/>
<path fill="#F794A2" opacity="1.000000" stroke="none" 
	d="
M64.835670,68.849388 
	C60.930206,72.732162 57.768406,72.833527 55.288742,69.554283 
	C53.090210,66.646797 53.600460,62.433765 56.519611,60.396343 
	C59.991119,57.973396 62.785999,58.786335 65.389328,62.662930 
	C63.971493,62.662930 63.084003,62.598400 62.209354,62.676903 
	C60.586365,62.822575 58.398781,62.502174 57.524799,63.411938 
	C56.761230,64.206772 56.921383,66.865372 57.718533,67.877296 
	C58.367882,68.701591 60.561115,68.339249 62.073872,68.442795 
	C62.985287,68.505165 63.904598,68.452187 64.835670,68.849388 
z"/>
<path fill="#F794A2" opacity="1.000000" stroke="none" 
	d="
M210.317291,70.103020 
	C208.417862,70.869293 206.310104,71.564911 204.292786,71.361839 
	C203.734421,71.305634 203.210251,68.596802 203.085800,67.071136 
	C202.886002,64.621796 203.032242,62.144222 203.032242,59.361904 
	C205.422501,59.361904 207.613403,59.361904 209.804306,59.361904 
	C209.990875,59.718685 210.177460,60.075470 210.364029,60.432251 
	C208.956100,61.257992 207.548157,62.083733 205.572845,63.242229 
	C207.328903,63.769039 208.664291,64.169647 210.441956,64.702942 
	C208.536682,65.855820 207.119873,66.713135 204.931854,68.037109 
	C207.459076,68.840179 208.801102,69.266624 210.317291,70.103020 
z"/>
<path fill="#F896A4" opacity="1.000000" stroke="none" 
	d="
M116.939667,71.878494 
	C116.264084,67.747040 116.033211,63.670532 115.786438,59.313068 
	C118.458961,59.313068 120.669914,59.313068 122.880875,59.313068 
	C123.050377,59.633144 123.219879,59.953220 123.389381,60.273293 
	C121.965164,61.172180 120.540955,62.071064 118.630013,63.277145 
	C120.313423,63.788006 121.648018,64.193016 122.982613,64.598022 
	C122.989410,64.895859 122.996208,65.193695 123.003006,65.491524 
	C121.715263,65.804939 120.427528,66.118355 120.059471,66.207932 
	C118.973305,68.532654 118.178848,70.233047 116.939667,71.878494 
z"/>
<path fill="#F795A3" opacity="1.000000" stroke="none" 
	d="
M245.493561,27.915081 
	C243.944870,30.221643 242.636658,32.236095 241.328430,34.250546 
	C239.908249,33.289803 238.488068,32.329063 237.067886,31.368324 
	C238.750687,29.711884 240.275650,27.818878 242.204803,26.531637 
	C242.850845,26.100554 244.528122,27.214983 245.493561,27.915081 
z"/>
<path fill="#F996A5" opacity="1.000000" stroke="none" 
	d="
M145.835800,26.691050 
	C147.505966,25.813745 148.895447,25.224417 150.439651,24.569469 
	C151.386215,31.435938 149.844772,33.107815 142.310120,32.674377 
	C143.570389,30.462452 144.562759,28.720739 145.835800,26.691050 
z"/>
<path fill="#F48D9B" opacity="1.000000" stroke="none" 
	d="
M135.010284,66.848419 
	C135.010330,68.763115 135.010330,70.225159 135.010330,71.887444 
	C130.964417,69.722610 130.832184,61.689468 135.010223,58.828964 
	C135.010223,61.609035 135.010223,64.002411 135.010284,66.848419 
z"/>
<path fill="#F896A5" opacity="1.000000" stroke="none" 
	d="
M103.207794,16.056705 
	C104.332008,16.855268 105.823433,18.038576 105.628006,18.487392 
	C104.890999,20.180027 103.605446,21.633808 102.279076,23.528736 
	C98.309700,20.231983 100.516167,18.164230 103.207794,16.056705 
z"/>
<path fill="#F48D9B" opacity="1.000000" stroke="none" 
	d="
M245.134537,62.066330 
	C244.193756,65.296875 246.542465,69.306709 241.981064,71.925758 
	C241.981064,68.936966 241.981064,65.948181 242.332336,62.500763 
	C243.500580,62.050201 244.317566,62.058266 245.134537,62.066330 
z"/>
<path fill="#F794A2" opacity="1.000000" stroke="none" 
	d="
M245.549454,62.046738 
	C244.317566,62.058266 243.500580,62.050201 242.275223,62.052322 
	C240.815430,61.544609 239.764038,61.026703 238.712631,60.508797 
	C238.883911,60.086132 239.055191,59.663464 239.226471,59.240799 
	C242.004684,59.240799 244.782898,59.240799 248.938202,59.240799 
	C247.468918,60.617451 246.716644,61.322300 245.549454,62.046738 
z"/>
<path fill="#000000" opacity="1.000000" stroke="none" 
	d="
M84.605530,41.089272 
	C84.635773,42.500511 84.291412,44.123833 83.947044,45.747158 
	C83.555168,45.628479 83.163292,45.509796 82.771416,45.391117 
	C83.257919,44.027863 83.744423,42.664608 84.605530,41.089272 
z"/>
<path fill="#020002" opacity="1.000000" stroke="none" 
	d="
M177.446075,31.535326 
	C178.197403,29.232635 178.741501,27.278397 179.285599,25.324158 
	C179.789856,25.162518 180.294113,25.000877 180.798370,24.839237 
	C182.196091,28.423969 185.319641,32.465733 184.524139,35.469666 
	C183.664856,38.714474 179.142761,40.989315 176.218384,43.687260 
	C175.766571,43.314526 175.314743,42.941792 174.862915,42.569061 
	C175.654892,39.007301 176.446869,35.445538 177.446075,31.535326 
z"/>
<path fill="#010000" opacity="1.000000" stroke="none" 
	d="
M17.460155,50.075119 
	C19.301580,51.139259 20.754473,52.127777 22.331793,53.200954 
	C22.595240,49.118126 25.979156,45.628498 29.012001,46.026936 
	C31.755581,46.387367 34.827137,51.395809 33.754108,54.598442 
	C31.657476,60.856209 28.692289,66.626884 22.680510,69.686264 
	C19.346918,65.648575 15.956221,61.883835 13.012536,57.797112 
	C11.931926,56.296898 10.959010,53.492538 11.659068,52.265888 
	C12.427552,50.919342 15.182332,50.706387 17.460155,50.075119 
z"/>
<path fill="#000000" opacity="1.000000" stroke="none" 
	d="
M82.982071,63.821384 
	C82.460846,65.764603 81.864555,67.332245 81.268272,68.899895 
	C79.686752,68.277000 77.844978,67.947884 76.649704,66.888992 
	C76.160431,66.455544 76.849007,63.451241 77.381531,63.333450 
	C79.129555,62.946808 81.051743,63.347614 82.982071,63.821384 
z"/>
</svg>